<svg width="40" height="40" viewBox="0 0 40 40" fill="none" xmlns="http://www.w3.org/2000/svg">
<path d="M34.8154 15.1878C37.1436 13.7493 38.002 10.7799 36.8008 8.32064C35.5993 5.86165 32.7295 4.71387 30.1634 5.66602L21.2106 7.34473L21.2074 7.34603C19.7881 7.41178 18.6702 8.57943 18.6667 10V14.6667H15.3333V13.3333H17.3333C17.5475 13.3333 17.7487 13.2301 17.874 13.0563C17.9993 12.8825 18.0335 12.6592 17.9658 12.4557L16.9251 9.33333H17.3333C17.5475 9.33333 17.7487 9.23014 17.874 9.05632C17.9993 8.88249 18.0335 8.65918 17.9658 8.45573L16.6325 4.45573C16.5417 4.18359 16.2868 4 16 4H8C7.71322 4 7.45833 4.18359 7.36751 4.45573L6.03418 8.45573C5.96647 8.65918 6.00065 8.88249 6.12598 9.05632C6.2513 9.23014 6.45247 9.33333 6.66667 9.33333H7.07487L6.1862 12H4V0.666667C4 0.298503 3.7015 0 3.33333 0H0.666667C0.298503 0 0 0.298503 0 0.666667V3.33333C0 3.7015 0.298503 4 0.666667 4H2.66667V12.6667C2.66667 13.0348 2.96517 13.3333 3.33333 13.3333H8.66667V14.6667H8C3.58366 14.6719 0.00520833 18.2503 0 22.6667V26.6667C0.00651042 30.8392 3.2168 34.307 7.3763 34.6351C6.9196 35.2139 6.6696 35.929 6.66667 36.6667C6.66667 38.5075 8.15918 40 10 40C11.8408 40 13.3333 38.5075 13.3333 36.6667C13.3307 35.943 13.0905 35.2402 12.6497 34.6667H27.3503C26.9095 35.2402 26.6693 35.943 26.6667 36.6667C26.6667 38.5075 28.1592 40 30 40C31.8408 40 33.3333 38.5075 33.3333 36.6667C33.3304 35.929 33.0804 35.2139 32.6237 34.6351C36.7832 34.307 39.9935 30.8392 40 26.6667V22.6667C39.9941 19.3385 37.93 16.361 34.8154 15.1878ZM1.33333 1.33333H2.66667V2.66667H1.33333V1.33333ZM24 10C23.9974 9.37533 23.7734 8.77181 23.3678 8.29688L27.735 7.47786C26.4928 9.125 26.3193 11.3428 27.29 13.1631L24 12.1348V10ZM27.6312 14.6667H24V13.5319L27.6312 14.6667ZM36 10.6667C35.9971 12.8398 34.2604 14.6133 32.0879 14.6621L29.6589 13.9033C28.4772 13.0521 27.8525 11.6247 28.0296 10.179C28.2064 8.7334 29.1566 7.49902 30.5088 6.95801L32.0488 6.66927C34.2373 6.69759 35.9971 8.47819 36 10.6667ZM21.3333 8.66667C22.0697 8.66667 22.6667 9.26367 22.6667 10C22.6667 10.7363 22.0697 11.3333 21.3333 11.3333C20.597 11.3333 20 10.7363 20 10C20.0007 9.264 20.5973 8.66732 21.3333 8.66667ZM20 12.2956C20.3604 12.5062 20.7656 12.6283 21.1826 12.6514L22.6667 13.1152V14.6667H20V12.2956ZM8.48047 5.33333H15.5195L16.4085 8H7.59147L8.48047 5.33333ZM7.59147 12L8.48047 9.33333H15.5195L16.4085 12H7.59147ZM10 13.3333H14V14.6667H10V13.3333ZM12 36.6667C12 37.7712 11.1045 38.6667 10 38.6667C8.89551 38.6667 8 37.7712 8 36.6667C8 35.5622 8.89551 34.6667 10 34.6667C11.1042 34.668 11.9987 35.5625 12 36.6667ZM30 38.6667C28.8955 38.6667 28 37.7712 28 36.6667C28 35.5622 28.8955 34.6667 30 34.6667C31.1045 34.6667 32 35.5622 32 36.6667C31.9987 37.7708 31.1042 38.6654 30 38.6667ZM38.6667 26.6667C38.6624 30.347 35.6803 33.3291 32 33.3333H8C4.31966 33.3291 1.33757 30.347 1.33333 26.6667V22.6667C1.33757 18.9863 4.31966 16.0042 8 16H31.998L32.0003 16.0003L32.002 16C35.6813 16.0052 38.6624 18.9873 38.6667 22.6667V26.6667Z" fill="#242424"/>
<path d="M31.9997 8C30.527 8 29.333 9.19401 29.333 10.6667C29.333 12.1393 30.527 13.3333 31.9997 13.3333C33.4723 13.3333 34.6663 12.1393 34.6663 10.6667C34.6647 9.19466 33.4717 8.00163 31.9997 8ZM31.9997 12C31.2633 12 30.6663 11.403 30.6663 10.6667C30.6663 9.93034 31.2633 9.33333 31.9997 9.33333C32.736 9.33333 33.333 9.93034 33.333 10.6667C33.3324 11.4027 32.7357 11.9993 31.9997 12Z" fill="#242424"/>
<path d="M29.9997 20H9.99967C9.63151 20 9.33301 20.2985 9.33301 20.6667V27.3333C9.33301 27.7015 9.63151 28 9.99967 28H29.9997C30.3678 28 30.6663 27.7015 30.6663 27.3333V20.6667C30.6663 20.2985 30.3678 20 29.9997 20ZM29.333 26.6667H10.6663V21.3333H29.333V26.6667Z" fill="#242424"/>
<path d="M12.6663 29.3334H9.99967C9.63151 29.3334 9.33301 29.6319 9.33301 30C9.33301 30.3682 9.63151 30.6667 9.99967 30.6667H12.6663C13.0345 30.6667 13.333 30.3682 13.333 30C13.333 29.6319 13.0345 29.3334 12.6663 29.3334Z" fill="#242424"/>
<path d="M18.0003 29.3334H15.3337C14.9655 29.3334 14.667 29.6319 14.667 30C14.667 30.3682 14.9655 30.6667 15.3337 30.6667H18.0003C18.3685 30.6667 18.667 30.3682 18.667 30C18.667 29.6319 18.3685 29.3334 18.0003 29.3334Z" fill="#242424"/>
<path d="M7.33301 18C5.12728 18 3.33301 20.0934 3.33301 22.6667C3.33301 23.0348 3.63151 23.3333 3.99967 23.3333C4.36784 23.3333 4.66634 23.0348 4.66634 22.6667C4.66634 20.8288 5.86263 19.3333 7.33301 19.3333C7.70117 19.3333 7.99967 19.0348 7.99967 18.6667C7.99967 18.2985 7.70117 18 7.33301 18Z" fill="#242424"/>
</svg>
