<svg width="16" height="16" viewBox="0 0 16 16" fill="none" xmlns="http://www.w3.org/2000/svg">
<g clip-path="url(#clip0)">
<path d="M15.6413 12.6447L13.1703 10.1735C12.6782 9.68327 11.8631 9.69816 11.3538 10.2077L10.109 11.4523C10.0303 11.4089 9.9489 11.3636 9.86331 11.3156C9.07718 10.88 8.00124 10.283 6.86903 9.14996C5.73346 8.01453 5.13589 6.93693 4.69898 6.1503C4.65287 6.06696 4.6087 5.98661 4.56507 5.91031L5.40057 5.07605L5.81133 4.66479C6.32142 4.15456 6.33549 3.33975 5.84447 2.84813L3.37352 0.376634C2.8825 -0.114292 2.0671 -0.0993984 1.557 0.410834L0.860607 1.11123L0.879637 1.13012C0.646126 1.42808 0.450997 1.77173 0.305787 2.14231C0.171932 2.49506 0.0885941 2.83168 0.0504876 3.16898C-0.275785 5.87385 0.960263 8.34591 4.31474 11.7004C8.95164 16.337 12.6884 15.9867 12.8496 15.9696C13.2007 15.9277 13.5372 15.8438 13.8791 15.711C14.2465 15.5675 14.5899 15.3726 14.8877 15.1396L14.9029 15.1531L15.6084 14.4623C16.1174 13.9522 16.1321 13.1371 15.6413 12.6447Z" fill="#0E8EEB"/>
</g>
<defs>
<clipPath id="clip0">
<rect width="16" height="16" fill="white"/>
</clipPath>
</defs>
</svg>
