<svg width="40" height="40" viewBox="0 0 40 40" fill="none" xmlns="http://www.w3.org/2000/svg">
<path d="M29.0494 6.78733L22.6674 2.31933V0H21.3341V2H18.6674V0H17.3341V2.31933L10.9521 6.786C10.6499 6.99625 10.5752 7.41167 10.7854 7.71392C10.9103 7.8935 11.1153 8.00042 11.3341 8H28.6674C29.0356 7.99975 29.3339 7.701 29.3336 7.33283C29.3334 7.11558 29.2274 6.912 29.0494 6.78733ZM13.4488 6.66667L18.2108 3.33333H21.7908L26.5528 6.66667H13.4488Z" fill="#242424"/>
<path d="M8.66732 26H7.33398C6.2294 26 5.33398 26.8954 5.33398 28V28.6667C5.33398 29.7712 6.2294 30.6667 7.33398 30.6667H8.66732C9.7719 30.6667 10.6673 29.7712 10.6673 28.6667V28C10.6673 26.8954 9.7719 26 8.66732 26ZM9.33398 28.6667C9.33398 29.0348 9.03548 29.3333 8.66732 29.3333H7.33398C6.96582 29.3333 6.66732 29.0348 6.66732 28.6667V28C6.66732 27.6318 6.96582 27.3333 7.33398 27.3333H8.66732C9.03548 27.3333 9.33398 27.6318 9.33398 28V28.6667Z" fill="#242424"/>
<path d="M32.6673 26H31.334C30.2294 26 29.334 26.8954 29.334 28V28.6667C29.334 29.7712 30.2294 30.6667 31.334 30.6667H32.6673C33.7719 30.6667 34.6673 29.7712 34.6673 28.6667V28C34.6673 26.8954 33.7719 26 32.6673 26ZM33.334 28.6667C33.334 29.0348 33.0355 29.3333 32.6673 29.3333H31.334C30.9658 29.3333 30.6673 29.0348 30.6673 28.6667V28C30.6673 27.6318 30.9658 27.3333 31.334 27.3333H32.6673C33.0355 27.3333 33.334 27.6318 33.334 28V28.6667Z" fill="#242424"/>
<path d="M26 26H14C12.8954 26 12 26.8954 12 28V28.6667C12 29.7712 12.8954 30.6667 14 30.6667H26C27.1046 30.6667 28 29.7712 28 28.6667V28C28 26.8954 27.1046 26 26 26ZM26.6667 28.6667C26.6667 29.0348 26.3682 29.3333 26 29.3333H14C13.6318 29.3333 13.3333 29.0348 13.3333 28.6667V28C13.3333 27.6318 13.6318 27.3333 14 27.3333H26C26.3682 27.3333 26.6667 27.6318 26.6667 28V28.6667Z" fill="#242424"/>
<path d="M35.2367 24.0433L33.7587 23.452L29.3374 17.3727C28.7089 16.5115 27.7074 16.0017 26.6414 16H13.3574C12.2913 16.0017 11.2899 16.5115 10.6614 17.3727L6.24003 23.452L4.76203 24.0433C3.49328 24.5459 2.6617 25.774 2.66603 27.1387V38.6667C2.66603 39.4031 3.26295 40 3.99937 40H7.99937C8.73578 40 9.3327 39.4031 9.3327 38.6667V36H30.666V38.6667C30.666 39.4031 31.2629 40 31.9994 40H35.9994C36.7358 40 37.3327 39.4031 37.3327 38.6667V27.1387C37.337 25.774 36.5054 24.5459 35.2367 24.0433ZM11.7394 18.1573C12.1164 17.6404 12.7175 17.3343 13.3574 17.3333H26.6414C27.2812 17.3343 27.8823 17.6404 28.2594 18.1573L32.0234 23.3333H7.97537L11.7394 18.1573ZM7.99937 38.6667H3.99937V35.886C4.05537 35.906 4.11603 35.9167 4.1747 35.9313C4.21337 35.9413 4.2507 35.9547 4.2907 35.962C4.41428 35.9865 4.54003 35.9993 4.66603 36H7.99937V38.6667ZM35.9994 38.6667H31.9994V36H35.3327C35.4587 35.9993 35.5844 35.9865 35.708 35.962C35.748 35.9547 35.7854 35.9413 35.8247 35.9313C35.8827 35.9167 35.9434 35.906 35.9994 35.886V38.6667ZM35.9994 34C35.9994 34.3682 35.7009 34.6667 35.3327 34.6667H8.66603H4.66603C4.29787 34.6667 3.99937 34.3682 3.99937 34V33.3333H35.9994V34ZM35.9994 32H3.99937V27.1387C3.99653 26.32 4.49545 25.5833 5.2567 25.282L6.79403 24.6667H33.2047L34.742 25.282C35.5033 25.5833 36.0022 26.32 35.9994 27.1387V32Z" fill="#242424"/>
<path d="M20.6673 9.33325H19.334V11.3333H20.6673V9.33325Z" fill="#242424"/>
<path d="M20.6673 12.6667H19.334V14.6667H20.6673V12.6667Z" fill="#242424"/>
<path d="M12.8182 8.91056L11.5508 10.4578L12.5822 11.3027L13.8496 9.7555L12.8182 8.91056Z" fill="#242424"/>
<path d="M10.7071 11.4901L9.43945 13.0371L10.4708 13.8822L11.7384 12.3352L10.7071 11.4901Z" fill="#242424"/>
<path d="M8.59377 14.0682L7.32617 15.6152L8.3575 16.4603L9.6251 14.9133L8.59377 14.0682Z" fill="#242424"/>
<path d="M6.48049 16.6495L5.21289 18.1965L6.24422 19.0416L7.51182 17.4946L6.48049 16.6495Z" fill="#242424"/>
<path d="M16.0274 9.14954L15.4668 11.0693L16.7467 11.4431L17.3073 9.52327L16.0274 9.14954Z" fill="#242424"/>
<path d="M15.0927 12.3443L14.5312 14.2639L15.811 14.6382L16.3724 12.7186L15.0927 12.3443Z" fill="#242424"/>
<path d="M9.03466 8.70626L7.56445 10.0623L8.468 11.0419L9.9382 9.6859L9.03466 8.70626Z" fill="#242424"/>
<path d="M6.58348 10.9682L5.11328 12.3242L6.01683 13.3039L7.48703 11.9479L6.58348 10.9682Z" fill="#242424"/>
<path d="M4.13622 13.2268L2.66602 14.5828L3.56956 15.5624L5.03976 14.2064L4.13622 13.2268Z" fill="#242424"/>
<path d="M1.68504 15.4868L0.214844 16.8428L1.11839 17.8224L2.58859 16.4664L1.68504 15.4868Z" fill="#242424"/>
<path d="M27.1836 9.05029L26.1523 9.89453L27.4193 11.4421L28.4506 10.5979L27.1836 9.05029Z" fill="#242424"/>
<path d="M29.2912 11.625L28.2598 12.47L29.5272 14.0172L30.5586 13.1722L29.2912 11.625Z" fill="#242424"/>
<path d="M31.4063 14.2054L30.375 15.0503L31.6424 16.5973L32.6738 15.7524L31.4063 14.2054Z" fill="#242424"/>
<path d="M33.5138 16.7869L32.4824 17.6318L33.7498 19.1788L34.7812 18.3339L33.5138 16.7869Z" fill="#242424"/>
<path d="M23.9733 9.29415L22.6934 9.66748L23.2534 11.5875L24.5333 11.2141L23.9733 9.29415Z" fill="#242424"/>
<path d="M24.9067 12.4838L23.627 12.8579L24.1881 14.7775L25.4679 14.4034L24.9067 12.4838Z" fill="#242424"/>
<path d="M30.9641 8.84374L30.0605 9.82324L31.5306 11.1792L32.4341 10.1997L30.9641 8.84374Z" fill="#242424"/>
<path d="M33.4154 11.1053L32.5117 12.0847L33.9815 13.4409L34.8852 12.4615L33.4154 11.1053Z" fill="#242424"/>
<path d="M35.8627 13.3668L34.959 14.3462L36.4288 15.7024L37.3325 14.723L35.8627 13.3668Z" fill="#242424"/>
<path d="M38.3137 15.6245L37.4102 16.604L38.8802 17.96L39.7837 16.9805L38.3137 15.6245Z" fill="#242424"/>
</svg>
