<svg width="40" height="40" viewBox="0 0 40 40" fill="none" xmlns="http://www.w3.org/2000/svg">
<path d="M23.4886 10.3234C23.8122 10.3234 24.0746 10.0611 24.0746 9.73742C24.0746 9.41375 23.8122 9.15149 23.4886 9.15149H16.5117C16.1881 9.15149 15.9258 9.41375 15.9258 9.73742C15.9258 10.0611 16.1881 10.3234 16.5117 10.3234H23.4886Z" fill="black"/>
<path d="M23.4886 16.6975H16.5117C16.1881 16.6975 15.9258 16.9598 15.9258 17.2834C15.9258 17.607 16.1881 17.8694 16.5117 17.8694H23.4886C23.8122 17.8694 24.0746 17.6071 24.0746 17.2834C24.0746 16.9598 23.8122 16.6975 23.4886 16.6975Z" fill="black"/>
<path d="M23.4886 24.2438H16.5117C16.1881 24.2438 15.9258 24.506 15.9258 24.8297C15.9258 25.1534 16.1881 25.4156 16.5117 25.4156H23.4886C23.8122 25.4156 24.0746 25.1534 24.0746 24.8297C24.0746 24.506 23.8122 24.2438 23.4886 24.2438Z" fill="black"/>
<path d="M3.61914 29.7925H36.3803C36.7039 29.7925 36.9662 29.5302 36.9662 29.2065V6.41723C36.9662 6.09356 36.7039 5.8313 36.3803 5.8313H11.9864C11.6628 5.8313 11.4004 6.09356 11.4004 6.41723C11.4004 6.7409 11.6628 7.00317 11.9864 7.00317H35.7943V13.4277H4.20507V7.00317H9.7113C10.0349 7.00317 10.2972 6.7409 10.2972 6.41723C10.2972 6.09356 10.0349 5.8313 9.7113 5.8313H3.61914C3.29555 5.8313 3.0332 6.09356 3.0332 6.41723V29.2065C3.0332 29.53 3.29555 29.7925 3.61914 29.7925ZM4.20507 14.5995H35.7943V21.0241H4.20507V14.5995ZM4.20507 22.1961H35.7943V28.6206H4.20507V22.1961Z" fill="black"/>
<path d="M39.0347 2.81274H0.965153C0.432967 2.81274 0 3.24485 0 3.77594V31.8475C0 32.3787 0.432967 32.8108 0.965153 32.8108H1.70632V36.2243C1.70632 36.7554 2.13929 37.1875 2.67147 37.1875H6.46326C6.99544 37.1875 7.42841 36.7554 7.42841 36.2243V35.5274H32.5716V36.2243C32.5716 36.7554 33.0046 37.1875 33.5367 37.1875H37.3285C37.8607 37.1875 38.2937 36.7554 38.2937 36.2243V32.8108H39.0348C39.567 32.8108 40 32.3787 40 31.8475V3.77594C39.9998 3.24485 39.5669 2.81274 39.0347 2.81274ZM38.828 31.639H29.4542C29.1306 31.639 28.8682 31.9012 28.8682 32.2249C28.8682 32.5486 29.1306 32.8108 29.4542 32.8108H37.1217V36.0157H33.7434V34.9414C33.7434 34.6178 33.481 34.3555 33.1574 34.3555H6.8424C6.5188 34.3555 6.25646 34.6178 6.25646 34.9414V36.0157H2.87819V32.8108H27.0275C27.3511 32.8108 27.6134 32.5486 27.6134 32.2249C27.6134 31.9012 27.3511 31.639 27.0275 31.639H1.17187V3.98461H38.828V31.639Z" fill="black"/>
</svg>
