<svg width="40" height="40" viewBox="0 0 40 40" fill="none" xmlns="http://www.w3.org/2000/svg">
<path d="M35.5635 7.49999V7.59999H35.6635H37.2261C38.7004 7.59999 39.9 8.79959 39.9 10.2739V34.4134C39.9 35.8878 38.7004 37.0874 37.2261 37.0874H2.7739C1.2996 37.0874 0.1 35.8878 0.1 34.4135V10.2739C0.1 8.79959 1.2996 7.59999 2.7739 7.59999H4.3364H4.4364V7.49999V6.91398C4.4364 5.78452 5.35545 4.86554 6.48483 4.86554H8.43795C9.56733 4.86554 10.4864 5.7846 10.4864 6.91398V7.49999V7.59999H10.5864H11.9213H12.0213V7.49999V5.3075C12.0213 3.98702 13.0958 2.9125 14.4163 2.9125H25.4217C26.7424 2.9125 27.8169 3.98695 27.8169 5.3075V7.49999V7.59999H27.9169H29.4135H29.5135V7.49999V6.91398C29.5135 5.78452 30.4326 4.86554 31.562 4.86554H33.5151C34.6445 4.86554 35.5635 5.7846 35.5635 6.91398V7.49999ZM34.101 7.59999H34.201V7.49999V6.91398C34.201 6.53569 33.8934 6.22812 33.5151 6.22812H31.562C31.1836 6.22812 30.876 6.53569 30.876 6.91398V7.49999V7.59999H30.976H34.101ZM26.3544 7.59999H26.4544V7.49999V5.3075C26.4544 4.73803 25.9912 4.275 25.4217 4.275H14.4163C13.8469 4.275 13.3838 4.73805 13.3838 5.3075V7.49999V7.59999H13.4838H26.3544ZM9.02389 7.59999H9.12389V7.49999V6.91398C9.12389 6.53569 8.8163 6.22812 8.43795 6.22812H6.48483C6.10649 6.22812 5.79889 6.53569 5.79889 6.91398V7.49999V7.59999H5.89889H9.02389ZM37.2261 35.7249C37.9493 35.7249 38.5375 35.1367 38.5375 34.4135V10.2739C38.5375 9.5507 37.9493 8.96249 37.2261 8.96249H2.7739C2.0507 8.96249 1.4625 9.5507 1.4625 10.2739V34.4135C1.4625 35.1367 2.0507 35.7249 2.77389 35.7249H37.2261Z" fill="#242424" stroke="white" stroke-width="0.2"/>
<path d="M23.6391 18.6043V18.7043H23.7391H27.888C28.2642 18.7043 28.5693 19.0093 28.5693 19.3855V25.3019C28.5693 25.6781 28.2642 25.9831 27.888 25.9831H23.7391H23.6391V26.0831V30.2321C23.6391 30.6083 23.3341 30.9133 22.9579 30.9133H17.0416C16.6653 30.9133 16.3603 30.6083 16.3603 30.2321V26.0831V25.9831H16.2603H12.1113C11.7351 25.9831 11.4301 25.6781 11.4301 25.3019V19.3855C11.4301 19.0093 11.7351 18.7043 12.1113 18.7043H16.2603H16.3603V18.6043V14.4553C16.3603 14.0791 16.6653 13.7741 17.0416 13.7741H22.9579C23.3341 13.7741 23.6391 14.0791 23.6391 14.4553V18.6043ZM27.1068 24.6206H27.2068V24.5206V20.1668V20.0668H27.1068H22.9579C22.5817 20.0668 22.2766 19.7618 22.2766 19.3855V15.2366V15.1366H22.1766H17.8228H17.7228V15.2366V19.3855C17.7228 19.7618 17.4177 20.0668 17.0416 20.0668H12.8926H12.7926V20.1668V24.5206V24.6206H12.8926H17.0416C17.4177 24.6206 17.7228 24.9256 17.7228 25.3019V29.4508V29.5508H17.8228H22.1766H22.2766V29.4508V25.3019C22.2766 24.9256 22.5817 24.6206 22.9579 24.6206H27.1068Z" fill="#242424" stroke="white" stroke-width="0.2"/>
<path d="M10.9902 10.3344H11.0156C11.3919 10.3344 11.6969 10.6394 11.6969 11.0156C11.6969 11.3918 11.3919 11.6969 11.0156 11.6969H10.9902C10.614 11.6969 10.309 11.3919 10.309 11.0156C10.309 10.6394 10.614 10.3344 10.9902 10.3344Z" fill="#242424" stroke="white" stroke-width="0.2"/>
<path d="M3.51562 10.3344H8.66811C9.04437 10.3344 9.34936 10.6394 9.34936 11.0156C9.34936 11.3919 9.0443 11.6969 8.66811 11.6969H3.51562C3.13944 11.6969 2.83438 11.3919 2.83438 11.0156C2.83438 10.6394 3.13944 10.3344 3.51562 10.3344Z" fill="#242424" stroke="white" stroke-width="0.2"/>
<path d="M31.332 32.9906H36.4845C36.8607 32.9906 37.1658 33.2956 37.1658 33.6719C37.1658 34.0481 36.8607 34.3531 36.4845 34.3531H31.332C30.9558 34.3531 30.6508 34.0481 30.6508 33.6719C30.6508 33.2956 30.9558 32.9906 31.332 32.9906Z" fill="#242424" stroke="white" stroke-width="0.2"/>
<path d="M28.9844 32.9906H29.0097C29.3859 32.9906 29.6909 33.2956 29.6909 33.6719C29.6909 34.0481 29.3859 34.3531 29.0097 34.3531H28.9844C28.6081 34.3531 28.3031 34.0481 28.3031 33.6719C28.3031 33.2956 28.6081 32.9906 28.9844 32.9906Z" fill="#242424" stroke="white" stroke-width="0.2"/>
</svg>
