<svg width="22" height="14" viewBox="0 0 22 14" fill="none" xmlns="http://www.w3.org/2000/svg">
<path d="M20.2403 0.756148H18.84C19.0044 1.67908 18.6096 2.65199 17.7653 3.17439C17.3922 3.40502 16.9641 3.52706 16.5267 3.52706C15.7039 3.52706 14.9544 3.10972 14.5221 2.41056C14.2163 1.91608 14.1172 1.3239 14.2196 0.756104H7.78057C7.88244 1.3239 7.78339 1.91604 7.47769 2.41087C7.04569 3.10967 6.2962 3.52702 5.47339 3.52702C5.03574 3.52702 4.60769 3.40498 4.23435 3.17434C3.39021 2.65195 2.99532 1.67904 3.15989 0.756104H1.75969C0.787675 0.756104 0 1.54378 0 2.51579C0 3.48726 0.787675 4.27489 1.75969 4.27489H1.95379L3.24424 12.1232C3.37954 12.9442 4.08892 13.5471 4.92146 13.5471H17.0785C17.911 13.5471 18.6204 12.9442 18.7556 12.1232L20.0456 4.27498H20.2403C21.2122 4.27498 22 3.48726 22 2.51583C22 1.54382 21.2121 0.756148 20.2403 0.756148ZM7.50337 11.5112C7.45022 11.519 7.3976 11.5231 7.34548 11.5231C6.83191 11.5231 6.38176 11.1471 6.30261 10.6237L5.57181 5.75276C5.48527 5.17596 5.88244 4.63855 6.45925 4.552C7.03677 4.46797 7.57311 4.86264 7.66001 5.43908L8.39099 10.3104C8.47754 10.8871 8.08018 11.4246 7.50337 11.5112ZM12.0559 10.4669C12.0559 11.0503 11.5835 11.523 11.0003 11.523C10.417 11.523 9.94479 11.0502 9.94479 10.4669V5.59568C9.94479 5.01287 10.417 4.54008 11.0003 4.54008C11.5835 4.54008 12.0559 5.01287 12.0559 5.59568V10.4669ZM16.4285 5.75268L15.6972 10.6236C15.6186 11.1471 15.1685 11.523 14.6549 11.523C14.6026 11.523 14.5501 11.5189 14.4969 11.5111C13.9201 11.4246 13.5229 10.887 13.6094 10.3103L14.3403 5.43899C14.4271 4.86219 14.9613 4.46501 15.541 4.55187C16.1176 4.63841 16.515 5.17591 16.4285 5.75268Z" fill="#242424"/>
</svg>
