<svg width="14" height="14" viewBox="0 0 14 14" fill="none" xmlns="http://www.w3.org/2000/svg">
<g clip-path="url(#clip0)">
<path d="M12.6632 7.33792C12.3871 7.33792 12.1634 7.56167 12.1634 7.83754C12.1634 10.6845 9.84738 13.0007 7.00024 13.0007C4.15327 13.0007 1.83721 10.6845 1.83721 7.83754C1.83721 5.1593 3.88734 2.95206 6.50058 2.69967V3.84988C6.50058 4.02834 6.59595 4.1933 6.75037 4.28255C6.82772 4.32714 6.91407 4.34954 7.00024 4.34954C7.08655 4.34954 7.17268 4.32718 7.25 4.28255L10.1516 2.60755C10.3063 2.51837 10.4014 2.35345 10.4014 2.17491C10.4014 1.99641 10.3063 1.83139 10.1516 1.74221L7.25 0.0669639C7.09537 -0.0223213 6.90507 -0.0223213 6.75037 0.0669639C6.59595 0.156144 6.50058 0.321205 6.50058 0.49967V1.69709C3.33567 1.95252 0.837891 4.60794 0.837891 7.83751C0.837891 11.2355 3.60233 14 7.0002 14C10.3983 14 13.1627 11.2355 13.1627 7.83751C13.1627 7.56167 12.9391 7.33792 12.6632 7.33792Z" fill="#242424"/>
</g>
<defs>
<clipPath id="clip0">
<rect width="14" height="14" fill="white"/>
</clipPath>
</defs>
</svg>
