<svg width="23" height="28" viewBox="0 0 23 28" fill="none" xmlns="http://www.w3.org/2000/svg">
<path d="M3.42 28V23.934H0.38V20.248H3.42V17.284H0.38V12.572H3.42V0.867998H12.084C15.58 0.867998 18.126 1.57733 19.722 2.996C21.3433 4.41466 22.154 6.36533 22.154 8.848C22.154 10.3173 21.8247 11.698 21.166 12.99C20.5073 14.282 19.4053 15.3207 17.86 16.106C16.34 16.8913 14.2627 17.284 11.628 17.284H9.158V20.248H15.01V23.934H9.158V28H3.42ZM9.158 12.572H11.058C12.6793 12.572 13.9587 12.2933 14.896 11.736C15.8587 11.1787 16.34 10.2793 16.34 9.038C16.34 6.73267 14.82 5.58 11.78 5.58H9.158V12.572Z" fill="#242424"/>
</svg>
