<svg width="36" height="32" viewBox="0 0 36 32" fill="none" xmlns="http://www.w3.org/2000/svg">
<path d="M33.1204 11.0603H30.8291C31.0981 12.5712 30.4521 14.1639 29.0705 15.0191C28.4599 15.3967 27.7594 15.5965 27.0438 15.5965C25.6973 15.5965 24.4709 14.9133 23.7634 13.7687C23.2631 12.9592 23.1009 11.9898 23.2684 11.0602H12.7318C12.8985 11.9898 12.7365 12.9591 12.2362 13.7692C11.5293 14.9132 10.3029 15.5964 8.95646 15.5964C8.24031 15.5964 7.53985 15.3966 6.92894 15.0191C5.54761 14.1639 4.90143 12.5711 5.17073 11.0602H2.87949C1.28892 11.0602 0 12.3497 0 13.941C0 15.5313 1.28892 16.8207 2.87949 16.8207H3.19712L5.30875 29.669C5.53016 31.013 6.69096 32 8.05329 32H27.9466C29.3089 32 30.4697 31.013 30.691 29.669L32.8019 16.8209H33.1204C34.7109 16.8209 36 15.5313 36 13.941C36 12.3498 34.7107 11.0603 33.1204 11.0603ZM12.2782 28.667C12.1913 28.6798 12.1052 28.6865 12.0199 28.6865C11.1795 28.6865 10.4429 28.0709 10.3134 27.2141L9.11751 19.2401C8.97589 18.2958 9.62581 17.416 10.5697 17.2744C11.5147 17.1368 12.3924 17.7829 12.5346 18.7266L13.7307 26.7013C13.8723 27.6453 13.2221 28.5253 12.2782 28.667ZM19.7278 26.9574C19.7278 27.9126 18.9548 28.6863 18.0006 28.6863C17.046 28.6863 16.2733 27.9123 16.2733 26.9574V18.9829C16.2733 18.0288 17.0461 17.2549 18.0006 17.2549C18.9548 17.2549 19.7278 18.0288 19.7278 18.9829V26.9574ZM26.883 19.24L25.6863 27.2139C25.5577 28.0709 24.8212 28.6864 23.9808 28.6864C23.8951 28.6864 23.8093 28.6797 23.7221 28.6669C22.7783 28.5252 22.1283 27.6451 22.2699 26.7012L23.4659 18.7264C23.608 17.7822 24.4821 17.132 25.4307 17.2742C26.3743 17.4158 27.0245 18.2958 26.883 19.24Z" fill="#0E8EEB"/>
<path d="M7.53485 14.0393C7.97759 14.3137 8.46977 14.4444 8.95608 14.4444C9.86115 14.4444 10.746 13.9895 11.2561 13.163C11.7266 12.4018 11.7671 11.5015 11.457 10.7307L16.5868 2.43642C17.0504 1.68643 16.8185 0.704084 16.0689 0.239433C15.8074 0.0777988 15.5172 2.67029e-05 15.2311 2.67029e-05C14.6968 2.67029e-05 14.1749 0.268634 13.8723 0.757498L8.7442 9.05182C7.9168 9.11829 7.12929 9.55514 6.65882 10.3161C5.87285 11.5865 6.26617 13.2535 7.53485 14.0393Z" fill="#0E8EEB"/>
<path d="M24.5423 10.7307C24.2322 11.5015 24.2718 12.4018 24.7424 13.163C25.2534 13.9896 26.1374 14.4444 27.0433 14.4444C27.5295 14.4444 28.021 14.3137 28.4645 14.0393C29.7332 13.2535 30.1256 11.5865 29.34 10.3161C28.8707 9.55514 28.0825 9.11829 27.2558 9.05182L22.1257 0.757498C21.8239 0.268561 21.302 2.67029e-05 20.7675 2.67029e-05C20.4816 2.67029e-05 20.1914 0.0777988 19.9295 0.239433C19.1801 0.704084 18.9501 1.68643 19.4118 2.43642L24.5423 10.7307Z" fill="#0E8EEB"/>
</svg>
