<svg width="32" height="32" viewBox="0 0 32 32" fill="none" xmlns="http://www.w3.org/2000/svg">
<g clip-path="url(#clip0)">
<path d="M14.4628 0C6.48821 0 0 6.48821 0 14.4628C0 22.4378 6.48821 28.9255 14.4628 28.9255C22.4378 28.9255 28.9255 22.4378 28.9255 14.4628C28.9255 6.48821 22.4378 0 14.4628 0ZM14.4628 26.2556C7.96032 26.2556 2.67005 20.9653 2.67005 14.4628C2.67005 7.96038 7.96032 2.67005 14.4628 2.67005C20.9652 2.67005 26.2555 7.96032 26.2555 14.4628C26.2555 20.9652 20.9652 26.2556 14.4628 26.2556Z" fill="#0E8EEB"/>
<path d="M32.4507 30.5627L24.7965 22.9086C24.2749 22.387 23.4303 22.387 22.9087 22.9086C22.3872 23.4297 22.3872 24.2752 22.9087 24.7963L30.5629 32.4505C30.8236 32.7112 31.165 32.8416 31.5068 32.8416C31.8481 32.8416 32.1898 32.7112 32.4507 32.4505C32.9722 31.9294 32.9722 31.0838 32.4507 30.5627Z" fill="#0E8EEB"/>
<rect x="13.4746" y="7.57892" width="2.52632" height="13.4737" rx="1.26316" fill="#0E8EEB"/>
<rect x="21.4746" y="13.0526" width="2.52632" height="13.4737" rx="1.26316" transform="rotate(90 21.4746 13.0526)" fill="#0E8EEB"/>
</g>
<defs>
<clipPath id="clip0">
<rect width="32" height="32" fill="white"/>
</clipPath>
</defs>
</svg>
