<svg width="40" height="40" viewBox="0 0 40 40" fill="none" xmlns="http://www.w3.org/2000/svg">
<path d="M18.0003 13.3447C17.126 13.3478 16.3551 13.9199 16.0991 14.7561L6.04204 10.4447C4.31389 9.70286 2.30956 10.0709 0.957682 11.3782L0.568901 11.7536C0.204534 12.1057 -0.000842291 12.5913 0.000988701 13.0981C0.00373519 13.7735 0.366272 14.396 0.952189 14.732C1.70595 15.1449 2.64281 15.0018 3.23879 14.3826L3.33217 14.2895C3.47194 14.1476 3.66786 14.0759 3.86591 14.0936C4.06427 14.111 4.24431 14.2166 4.35692 14.3807L12.6559 26.555C13.2763 27.4662 14.3074 28.0116 15.4097 28.011H30C30.5737 28.0106 31.1202 27.7656 31.502 27.3368L39.5083 18.4498C39.9914 17.8947 40.1308 17.1193 39.8708 16.4305L37.8711 11.0975C37.6691 10.5527 37.2388 10.1234 36.6938 9.92289C36.1622 9.72819 35.5732 9.76634 35.0712 10.0276L27.2513 13.3447H24.6669V11.3447C25.7713 11.3447 26.6666 10.4493 26.6666 9.3449C26.6666 8.2402 25.7713 7.34485 24.6669 7.34485H20.6668C19.5624 7.34485 18.667 8.2402 18.667 9.3449C18.667 10.4493 19.5624 11.3447 20.6668 11.3447V13.3447H18.0003ZM27.3868 14.678C27.4759 14.678 27.5644 14.6603 27.6465 14.6255L35.6196 11.2455C35.6403 11.236 35.6611 11.2269 35.6809 11.2162C35.85 11.1231 36.0508 11.1085 36.2317 11.1753C36.4124 11.2424 36.5549 11.3849 36.6224 11.5656L38.6224 16.8987C38.7091 17.1245 38.6664 17.3796 38.511 17.5651L30.5078 26.4482C30.3799 26.5947 30.1944 26.6783 30 26.6777H15.4097C14.7481 26.6774 14.1295 26.3502 13.7572 25.8037L5.45612 13.6267C5.11953 13.1357 4.58152 12.8204 3.98858 12.7661C3.39565 12.7121 2.80973 12.9248 2.38952 13.3468L2.29614 13.4399C2.12372 13.6291 1.84815 13.6831 1.61684 13.5733C1.44503 13.4762 1.33761 13.2953 1.33426 13.0981C1.33395 12.9523 1.39285 12.8125 1.49752 12.7109L1.88416 12.3374C2.85154 11.4051 4.28307 11.1423 5.51807 11.6709L16.4045 16.3372C16.4918 16.3558 16.5794 16.3738 16.667 16.3912C16.7537 16.3903 16.8394 16.3729 16.9197 16.3399C16.9917 16.2944 17.0625 16.2474 17.1324 16.1986C17.1815 16.1476 17.2221 16.0891 17.2523 16.0253C17.2596 16.0112 17.2724 16.0021 17.2782 15.9874C17.2938 15.9407 17.3039 15.8928 17.3084 15.844C17.32 15.8056 17.3286 15.7659 17.3338 15.7259V15.3448C17.3338 14.9764 17.6322 14.678 18.0003 14.678H27.3868ZM20.0003 9.3449C20.0003 8.97657 20.2988 8.67812 20.6668 8.67812H24.6669C25.0349 8.67812 25.3334 8.97657 25.3334 9.3449C25.3334 9.71293 25.0349 10.0114 24.6669 10.0114H20.6668C20.2988 10.0114 20.0003 9.71293 20.0003 9.3449ZM22.0001 11.3447H23.3336V13.3447H22.0001V11.3447Z" fill="#242424"/>
<path d="M29.9739 24.085C30.3596 24.2357 30.7987 24.1311 31.0752 23.8222L36.8315 17.4559C37.0824 17.1785 37.1575 16.7842 37.0262 16.4339L36.0369 13.7899C35.9426 13.5388 35.7516 13.3362 35.5062 13.2272C35.2612 13.1186 34.9825 13.1128 34.7329 13.2113L29.9656 15.114C29.5833 15.2639 29.3321 15.6331 29.333 16.0439V23.1518C29.3312 23.5659 29.5866 23.9379 29.9739 24.085ZM30.6663 16.27L34.9075 14.5766L35.7076 16.7101L30.6663 22.2863V16.27Z" fill="#242424"/>
<path d="M4.66777 32.6774C5.91376 32.7055 7.11734 32.223 7.99865 31.3417C8.87997 30.4604 9.36244 29.2568 9.33406 28.0108C9.33406 25.8362 6.69285 22.3131 5.67482 21.1382C5.41512 20.858 5.05015 20.6987 4.66808 20.6987C4.28571 20.6987 3.92103 20.858 3.66103 21.1382C2.64239 22.3131 0.00118493 25.8362 0.00118493 28.0108C-0.0271954 29.2568 0.455271 30.4604 1.33659 31.3417C2.21791 32.223 3.42148 32.7055 4.66777 32.6774ZM4.66777 22.0109C6.01172 23.5621 8.00079 26.5442 8.00079 28.0108C8.03161 28.9037 7.69044 29.7698 7.05844 30.4015C6.42675 31.0335 5.56069 31.3746 4.66777 31.3438C3.77455 31.3746 2.9088 31.0335 2.2768 30.4015C1.64481 29.7698 1.30363 28.9037 1.33445 28.0108C1.33445 26.5442 3.32383 23.563 4.66777 22.0109Z" fill="#242424"/>
<path d="M20.0003 16.0112H19.3335C18.9655 16.0112 18.667 16.3097 18.667 16.678C18.667 17.0461 18.9655 17.3445 19.3335 17.3445H20.0003C20.3683 17.3445 20.6668 17.0461 20.6668 16.678C20.6668 16.3097 20.3683 16.0112 20.0003 16.0112Z" fill="#242424"/>
<path d="M22 16.678C22 17.046 22.2988 17.3445 22.6668 17.3445H25.3333C25.7016 17.3445 26.0001 17.046 26.0001 16.678C26.0001 16.3097 25.7016 16.0112 25.3333 16.0112H22.6668C22.2988 16.0112 22 16.3097 22 16.678Z" fill="#242424"/>
<path d="M3.79005 29.9768C4.01618 30.0521 4.2655 30.0009 4.44371 29.8425C4.62193 29.6841 4.70249 29.4427 4.65458 29.2093C4.60636 28.9755 4.43761 28.7854 4.21118 28.71C3.7046 28.5416 3.62587 28.3154 3.59993 28.2434C3.54378 27.8214 3.64723 27.3935 3.88984 27.0435C4.09369 26.7368 4.01038 26.323 3.70369 26.1192C3.397 25.9153 2.98319 25.9989 2.77934 26.3056C2.30634 26.9971 2.14612 27.8559 2.33807 28.6716C2.58068 29.317 3.12235 29.804 3.79005 29.9768Z" fill="#242424"/>
</svg>
