<svg width="40" height="40" viewBox="0 0 40 40" fill="none" xmlns="http://www.w3.org/2000/svg">
<path d="M20.0008 33.5484C29.2497 33.5484 36.7749 26.0238 36.7749 16.7742C36.7749 7.52457 29.2497 0 20.0008 0C10.7518 0 3.22656 7.52457 3.22656 16.7742C3.22656 26.0238 10.7518 33.5484 20.0008 33.5484ZM20.0008 1.29032C28.5381 1.29032 35.4846 8.23683 35.4846 16.7742C35.4846 25.3116 28.5381 32.2581 20.0008 32.2581C11.4634 32.2581 4.51689 25.3116 4.51689 16.7742C4.51689 8.23683 11.4634 1.29032 20.0008 1.29032Z" fill="#242424"/>
<path d="M20.0002 30.9678C27.8266 30.9678 34.1937 24.6006 34.1937 16.7742C34.1937 8.94788 27.8266 2.58069 20.0002 2.58069C12.1738 2.58069 5.80664 8.94788 5.80664 16.7742C5.80664 24.6006 12.1738 30.9678 20.0002 30.9678ZM9.62028 20.3755L7.86026 21.1045C7.44475 19.9427 7.19367 18.7072 7.1291 17.4194H10.3228V16.1291H7.12973C7.19367 14.8419 7.44475 13.6058 7.86089 12.444L9.6209 13.1729L10.1152 11.9806L8.35641 11.2522C8.90077 10.109 9.6061 9.06065 10.4466 8.13166L12.7015 10.3872L13.6138 9.4749L11.3589 7.21936C12.2872 6.37889 13.3356 5.67356 14.4788 5.1292L15.2072 6.88764L16.3995 6.39369L15.6706 4.63367C16.8317 4.21879 18.0679 3.96772 19.355 3.90377V7.09682H20.6454V3.90377C21.9325 3.96772 23.1687 4.21879 24.3305 4.63493L23.6015 6.39495L24.7939 6.88922L25.5222 5.13046C26.6654 5.67482 27.7138 6.38015 28.6421 7.22062L26.3872 9.47616L27.2995 10.3885L29.5544 8.13292C30.3949 9.06128 31.1009 10.1103 31.6446 11.2535L29.8862 11.9818L30.3801 13.1742L32.1401 12.4452C32.5556 13.607 32.8067 14.8425 32.8713 16.1303H29.6776V17.4207H32.8707C32.8067 18.7078 32.5556 19.944 32.1395 21.1058L30.3795 20.3768L29.8852 21.5692L31.644 22.2975C31.15 23.3361 30.5266 24.2994 29.7853 25.1632H23.1608C23.0584 24.6601 22.8278 24.2078 22.52 23.8193L21.3466 10.9092C21.2826 10.2058 20.7039 9.67746 20.0002 9.67746C19.2964 9.67746 18.7177 10.2058 18.6544 10.9064L17.4803 23.8175C17.1726 24.2065 16.942 24.6582 16.8396 25.1613H10.2144C9.47316 24.2975 8.84974 23.3342 8.35578 22.2956L10.1142 21.5673L9.62028 20.3755ZM20.0002 23.871C20.84 23.871 21.5498 24.4122 21.8169 25.1613H18.1841C18.4506 24.4122 19.1603 23.871 20.0002 23.871ZM18.8693 22.7962L19.9394 11.0239C19.9454 10.9593 20.0556 10.9593 20.061 11.0239L21.1311 22.7962C20.7783 22.6632 20.3996 22.5807 20.0002 22.5807C19.6007 22.5807 19.2221 22.6632 18.8693 22.7962ZM11.4937 26.4517H28.5061C26.2325 28.453 23.2603 29.6775 20.0002 29.6775C16.74 29.6775 13.7678 28.453 11.4937 26.4517Z" fill="#242424"/>
<path d="M36.1297 24.5161V38.7097H34.8393V30.3226H30.9684V38.7097H29.6781V33.5484H25.8071V38.7097H24.5168V36.129H20.6458V38.7097H19.3555V40H40.0006V24.5161H36.1297ZM32.2587 31.6129H33.549V38.7097H32.2587V31.6129ZM27.0974 34.8387H28.3877V38.7097H27.0974V34.8387ZM21.9361 37.4193H23.2264V38.7097H21.9361V37.4193ZM38.7103 38.7097H37.42V25.8064H38.7103V38.7097Z" fill="#242424"/>
<path d="M9.23041 36.48L7.57686 30.9678H0V32.2581H6.61668L8.83411 39.6491L11.3328 35.4839H15.4839V34.1936H10.6026L9.23041 36.48Z" fill="#242424"/>
<path d="M2.58008 34.8387H3.8704V36.1291H2.58008V34.8387Z" fill="#242424"/>
<path d="M0 34.8387H1.29032V36.1291H0V34.8387Z" fill="#242424"/>
<path d="M5.16211 34.8387H6.45243V36.1291H5.16211V34.8387Z" fill="#242424"/>
</svg>
