<svg width="40" height="40" viewBox="0 0 40 40" fill="none" xmlns="http://www.w3.org/2000/svg">
<g clip-path="url(#clip0)">
<path d="M25.18 0.682217C17.3682 -1.41078 9.06482 1.40775 4.1417 7.82403C-0.781419 14.24 -1.35501 22.99 2.68881 29.9939C5.32915 34.5958 9.70065 37.9504 14.8291 39.3102C16.5276 39.7666 18.2783 39.9985 20.0372 40C27.1756 39.9857 33.7655 36.1683 37.3291 29.9826C40.8924 23.797 40.889 16.1811 37.3203 9.9988C34.6799 5.39665 30.3084 2.04205 25.18 0.682217ZM38.0308 24.8264C36.077 32.1171 29.924 37.5129 22.4405 38.4983C14.9572 39.4835 7.61711 35.8638 3.843 29.3273C0.516483 23.5566 0.515568 16.4511 3.83995 10.6795C7.16464 4.90787 13.3118 1.34398 19.9725 1.32598C21.6139 1.3272 23.2481 1.54382 24.8334 1.97005C29.6143 3.25087 33.6905 6.37846 36.1655 10.6648C38.6404 14.9515 39.3111 20.0455 38.0299 24.8264H38.0308Z" fill="#242424"/>
<path d="M12.0022 6.14569C12.5209 5.85096 13.0548 5.584 13.6019 5.34572C13.8203 5.25052 13.9713 5.04611 13.9979 4.80935C14.0247 4.57259 13.9228 4.33949 13.7312 4.19823C13.5396 4.05666 13.287 4.02829 13.0689 4.12348C12.4776 4.38129 11.9006 4.66992 11.3398 4.98844C8.08013 6.85414 5.52277 9.73826 4.06103 13.1978C3.91702 13.5368 4.07537 13.9282 4.41434 14.0719C4.75361 14.2156 5.14475 14.0576 5.28845 13.7183C6.6367 10.5269 8.99544 7.86646 12.0022 6.14569Z" fill="#242424"/>
<path d="M35.5951 25.9208C35.4325 25.8515 35.2489 25.85 35.0847 25.9162C34.9209 25.9824 34.7897 26.1112 34.7207 26.2741C33.3716 29.4664 31.0116 32.1275 28.003 33.8482C26.9541 34.4496 25.8417 34.9326 24.6859 35.2883C24.3702 35.3853 24.1728 35.699 24.2225 36.0257C24.2719 36.3522 24.5535 36.5932 24.8839 36.592C24.9502 36.5926 25.0164 36.5826 25.0798 36.5627C26.3301 36.1771 27.5341 35.6544 28.6696 35.004C31.9293 33.1383 34.4864 30.2541 35.9484 26.7946C36.0922 26.4556 35.9341 26.0645 35.5951 25.9208Z" fill="#242424"/>
<path d="M27.9471 29.8405C27.9562 29.8344 27.9669 29.8338 27.9764 29.828C27.9919 29.8133 28.0066 29.7981 28.0203 29.7819C31.4783 26.9405 33.1832 22.4875 32.5071 18.0633C32.5071 18.0553 32.5026 18.0486 32.5026 18.0413C32.0388 14.9628 30.4395 12.1693 28.0197 10.2106C28.0029 10.1965 27.9938 10.1773 27.9758 10.1645C27.9684 10.1599 27.9596 10.1593 27.9523 10.1547C24.4451 7.33102 19.7039 6.57833 15.4947 8.17706C15.488 8.18042 15.4806 8.17706 15.4733 8.18256L15.4648 8.18927C14.2264 8.64448 13.0752 9.30838 12.0608 10.152C12.0516 10.1581 12.0409 10.1587 12.0315 10.1645C12.0162 10.1791 12.0013 10.1944 11.9875 10.2106C8.52982 13.052 6.82522 17.5052 7.50132 21.9292C7.50132 21.9371 7.5059 21.9439 7.5059 21.9512C8.17163 26.4368 11.1976 30.2179 15.4282 31.8508C19.6587 33.4834 24.4403 32.7158 27.9471 29.8405ZM22.6395 23.0862C22.6209 23.0965 22.6026 23.1078 22.5849 23.12L22.0159 23.4535L20.8507 24.1266C20.6701 24.2339 20.5517 24.4213 20.5322 24.6306C20.099 24.676 19.6611 24.6617 19.2319 24.5879C19.1348 24.2645 18.9188 23.9902 18.6275 23.8199L17.3823 23.1008C17.0876 22.933 16.7401 22.8836 16.4106 22.9629C16.2434 22.7652 16.0933 22.5534 15.9621 22.3304C15.8358 22.1074 15.7287 21.8737 15.642 21.6327C15.8764 21.3852 16.0066 21.0569 16.0054 20.7161V19.2764C16.006 18.9371 15.8761 18.6106 15.6427 18.3647C15.7943 17.9592 16.0011 17.5766 16.2571 17.2276C16.4472 17.3197 16.6705 17.31 16.8518 17.2017L17.3457 16.9158C17.3531 16.9115 17.3616 16.9109 17.3689 16.9063C17.3878 16.8959 17.4061 16.8847 17.4235 16.8725L17.9929 16.539L19.1577 15.8659C19.3383 15.7585 19.4567 15.5712 19.4766 15.3619C19.908 15.3164 20.3437 15.3305 20.7714 15.4034C20.8703 15.7277 21.0887 16.0023 21.3825 16.171L22.6237 16.8923C22.9193 17.0622 23.2693 17.1123 23.6009 17.0323C23.7666 17.2297 23.9155 17.4403 24.0467 17.6621C24.173 17.8851 24.2801 18.1188 24.3667 18.3598C24.1321 18.6073 24.0021 18.9356 24.0034 19.2764V20.7161C24.0027 21.0554 24.1324 21.3819 24.3658 21.6278C24.2139 22.0339 24.0067 22.4168 23.7501 22.7661C23.5597 22.6791 23.3391 22.6883 23.157 22.7908L22.6704 23.0727C22.6603 23.0782 22.6496 23.081 22.6395 23.0862ZM13.3751 29.0646L16.7163 24.2532L17.9614 24.9717L15.4648 30.2685L13.3751 29.0646ZM8.75651 18.7806L14.6721 19.2764V20.7189L8.74919 21.2125C8.66407 20.404 8.6662 19.5888 8.7556 18.7806H8.75651ZM26.6855 10.8491L23.2903 15.7387L22.0452 15.0196L24.5818 9.64003C25.3251 9.96709 26.0308 10.3735 26.6867 10.8519L26.6855 10.8491ZM31.2516 21.2092L25.3363 20.7161V19.2736L31.2596 18.78C31.3447 19.5885 31.3426 20.4037 31.2529 21.2119L31.2516 21.2092ZM27.7164 28.2857L24.6126 23.8199C25.0425 23.3009 25.3821 22.7136 25.6176 22.0824L31.0295 22.5342C30.5249 24.7395 29.371 26.7428 27.7164 28.2857ZM29.8174 14.331C30.3812 15.3079 30.7958 16.3639 31.0469 17.4634L25.6183 17.9162C25.5066 17.5983 25.3678 17.2908 25.203 16.9969C25.0306 16.7056 24.8341 16.4294 24.6151 16.171L27.7216 11.7056C28.5472 12.4714 29.2535 13.3565 29.8174 14.331ZM19.9849 8.66553C21.1189 8.66767 22.2463 8.83883 23.3294 9.17353L21.0088 14.0951C20.343 13.9804 19.663 13.9783 18.9966 14.089L16.6763 9.16742C17.7482 8.83639 18.8633 8.66736 19.9849 8.66553ZM14.339 10.1834C14.6904 9.98235 15.0526 9.80081 15.4233 9.6388L17.9562 15.0214L17.3171 15.3927L16.7172 15.7381L13.3181 10.8491C13.6461 10.609 13.9872 10.3869 14.339 10.1834ZM12.2923 11.7068L15.3955 16.1759C14.9659 16.6949 14.6267 17.2822 14.3911 17.9135L8.97893 17.4616C9.48296 15.2551 10.6372 13.2506 12.2923 11.7068ZM10.1914 25.6615C9.62727 24.6846 9.21294 23.6286 8.96154 22.529L14.3902 22.0763C14.5031 22.3936 14.6431 22.7005 14.8088 22.9934C14.9806 23.2839 15.1768 23.5594 15.3949 23.8166L12.2881 28.2897C11.4622 27.5229 10.7552 26.6372 10.1914 25.6615ZM16.6818 30.811L18.9985 25.8949C19.3371 25.9569 19.6807 25.9898 20.0248 25.9935C20.3559 25.9901 20.6863 25.9596 21.0121 25.9013L23.3303 30.819C21.1632 31.4822 18.8471 31.4795 16.6818 30.811ZM24.5864 30.357L22.0538 24.9711L22.6929 24.5998L23.2928 24.2544L26.6919 29.1433C26.0384 29.6242 25.3336 30.0315 24.5907 30.357H24.5864Z" fill="#242424"/>
<path d="M20.6937 17.4216C19.465 17.0924 18.1751 17.6773 17.6128 18.818C17.0505 19.9588 17.3724 21.3382 18.3816 22.1122C19.3909 22.8863 20.8063 22.8396 21.7625 22.0009C22.7183 21.1618 22.9487 19.7645 22.3126 18.663C21.9608 18.0495 21.3777 17.6022 20.6937 17.4216ZM21.2935 20.3414C21.1144 21.0087 20.4554 21.4288 19.775 21.3092C19.0947 21.1893 18.6184 20.5696 18.6779 19.8813C18.7374 19.193 19.3128 18.6643 20.0039 18.663C20.121 18.6633 20.2379 18.6789 20.3511 18.7091C20.6925 18.8006 20.9838 19.0243 21.1605 19.3303C21.3371 19.6366 21.385 20.0006 21.2935 20.342V20.3414Z" fill="#242424"/>
<path d="M16.0052 4.00014C16.0052 4.36809 15.7068 4.66648 15.3385 4.66648C14.9706 4.66648 14.6719 4.36809 14.6719 4.00014C14.6719 3.63189 14.9706 3.3335 15.3385 3.3335C15.7068 3.3335 16.0052 3.63189 16.0052 4.00014Z" fill="#242424"/>
</g>
<defs>
<clipPath id="clip0">
<rect width="40" height="40" fill="white"/>
</clipPath>
</defs>
</svg>
