<svg width="40" height="40" viewBox="0 0 40 40" fill="none" xmlns="http://www.w3.org/2000/svg">
<path d="M13.4342 29.9935L13.3287 29.9877C10.7567 29.846 9.02016 29.5646 7.75197 29.1029C6.86337 28.78 6.19861 28.3649 5.73538 27.807C5.2714 27.2481 5.01679 26.5547 4.93329 25.6884L4.92591 25.6118L4.99813 25.5851C5.91367 25.2463 6.568 24.3647 6.568 23.3338V15.0001V14.9001H6.668C7.07291 14.9001 7.40113 14.5715 7.40113 14.1664V12.5001C7.40113 12.095 7.07291 11.7664 6.668 11.7664H6.568V11.6664V10.8332C6.568 10.4283 6.23935 10.1001 5.83424 10.1001H5.00103H4.90104V10.0001V6.21656V6.17056L4.93596 6.14063L10.4785 1.39034L13.4342 29.9935ZM13.4342 29.9935V29.8879M13.4342 29.9935V29.8879M13.4342 29.8879V12.5002C13.4342 12.0952 13.7629 11.7664 14.1679 11.7664H37.501C37.9058 11.7664 38.2335 12.095 38.2335 12.5001V38.3337C38.2335 38.7386 37.906 39.0662 37.501 39.0662H36.6685H36.5685V39.1662C36.5685 39.5711 36.2398 39.8999 35.8336 39.8999C35.4299 39.8999 35.1011 39.5713 35.1011 39.1662V39.0662H35.0011H16.6679H16.5679V39.1662C16.5679 39.5712 16.2392 39.8999 15.8341 39.8999C15.4292 39.8999 15.101 39.5713 15.101 39.1662V39.0662H15.001H14.1679C13.7628 39.0662 13.4342 38.7385 13.4342 38.3337V31.56V31.4652L13.3395 31.4601C10.8336 31.3262 8.79416 31.0423 7.25022 30.4811C6.051 30.045 5.15296 29.4442 4.53076 28.658C3.90889 27.8722 3.55662 26.8937 3.46142 25.6917L3.45623 25.6261L3.39402 25.6049C2.44926 25.2826 1.76797 24.3858 1.76797 23.3338V10.8333C1.76797 10.4283 2.09609 10.1002 2.5011 10.1002H3.33415H3.43415M13.4342 29.8879L3.43415 10.1002M3.43415 10.1002V10.0002M3.43415 10.1002V10.0002M3.43415 10.0002V5.83336C3.43415 5.61915 3.52813 5.41602 3.69057 5.27617L9.52339 0.276361L3.43415 10.0002ZM10.558 0.355656C10.2942 0.0486599 9.83134 0.0131435 9.52349 0.27628L10.558 0.355656ZM10.558 0.355656C10.8212 0.663551 10.7857 1.12658 10.4786 1.39029L10.558 0.355656ZM3.33423 23.2338H3.23423V23.3338C3.23423 23.8482 3.65328 24.2663 4.16791 24.2663C4.6827 24.2663 5.10103 23.8481 5.10103 23.3338V23.2338H5.00103H3.33423ZM5.00103 21.7663H5.10103V21.6663V11.6664V11.5664H5.00103H3.33423H3.23423V11.6664V21.6663V21.7663H3.33423H5.00103ZM36.6685 37.5999H36.7685V37.4999V23.3338V23.2338H36.6685H15.0011H14.9011V23.3338V29.9561V30.0532L14.9981 30.0561C15.5676 30.0732 16.1713 30.0854 16.8127 30.0928L16.884 30.0936L16.908 30.0265C17.2402 29.0981 18.1282 28.4339 19.1679 28.4339C20.491 28.4339 21.5686 29.5098 21.5686 30.8339C21.5686 32.1567 20.4909 33.2337 19.1679 33.2337C18.1224 33.2337 17.2315 32.5613 16.9033 31.6258L16.88 31.5596L16.8099 31.5589C16.1871 31.5528 15.5847 31.543 15.004 31.526L14.901 31.5229V31.6259V37.4999V37.5999H15.001H36.6685ZM18.7012 30.0257L18.5508 30.1121L18.701 30.1989C18.9205 30.326 19.0679 30.5623 19.0679 30.8337C19.0679 31.104 18.9206 31.3404 18.701 31.4672L18.5508 31.554L18.7012 31.6405C18.8387 31.7195 18.9974 31.7662 19.1679 31.7662C19.6827 31.7662 20.101 31.3481 20.101 30.8338C20.101 30.3184 19.6828 29.9 19.1679 29.9C18.9974 29.9 18.8387 29.9468 18.7012 30.0257ZM36.6685 21.7664H36.7685V21.6664V13.3333V13.2333H36.6685H15.001H14.901V13.3333V21.6664V21.7664H15.001H36.6685Z" fill="#242424" stroke="white" stroke-width="0.2"/>
<path d="M34.168 29.9002H25.0005C24.5957 29.9002 24.268 29.5716 24.268 29.1665C24.268 28.7616 24.5955 28.434 25.0005 28.434H34.168C34.5719 28.434 34.9005 28.7616 34.9005 29.1665C34.9005 29.5716 34.5717 29.9002 34.168 29.9002Z" fill="#242424" stroke="white" stroke-width="0.2"/>
<path d="M34.168 26.5663H25.0005C24.5955 26.5663 24.268 26.2388 24.268 25.8338C24.268 25.4286 24.5957 25.1 25.0005 25.1H34.168C34.5717 25.1 34.9005 25.4287 34.9005 25.8338C34.9005 26.2386 34.5719 26.5663 34.168 26.5663Z" fill="#242424" stroke="white" stroke-width="0.2"/>
<path d="M21.5686 17.5C21.5686 18.823 20.491 19.9 19.168 19.9C17.8445 19.9 16.768 18.823 16.768 17.5C16.768 16.1765 17.8445 15.1 19.168 15.1C20.491 15.1 21.5686 16.1765 21.5686 17.5ZM20.1011 17.5001C20.1011 16.9854 19.6829 16.5663 19.168 16.5663C18.6531 16.5663 18.2342 16.9853 18.2342 17.5001C18.2342 18.0144 18.6532 18.4332 19.168 18.4332C19.6829 18.4332 20.1011 18.0143 20.1011 17.5001Z" fill="#242424" stroke="white" stroke-width="0.2"/>
<path d="M28.234 17.5C28.234 18.823 27.1581 19.9 25.834 19.9C24.5122 19.9 23.434 18.823 23.434 17.5C23.434 16.1765 24.5122 15.1 25.834 15.1C27.1581 15.1 28.234 16.1765 28.234 17.5ZM26.769 17.5001C26.769 16.9851 26.3493 16.5663 25.834 16.5663C25.3196 16.5663 24.9015 16.9854 24.9015 17.5001C24.9015 18.0142 25.3197 18.4332 25.834 18.4332C26.3493 18.4332 26.769 18.0145 26.769 17.5001Z" fill="#242424" stroke="white" stroke-width="0.2"/>
<path d="M34.902 17.5C34.902 18.823 33.8261 19.9 32.502 19.9C31.179 19.9 30.102 18.823 30.102 17.5C30.102 16.1765 31.179 15.1 32.502 15.1C33.8261 15.1 34.902 16.1765 34.902 17.5ZM33.4345 17.5001C33.4345 16.9854 33.0163 16.5663 32.502 16.5663C31.9876 16.5663 31.5695 16.9854 31.5695 17.5001C31.5695 18.0142 31.9877 18.4332 32.502 18.4332C33.0163 18.4332 33.4345 18.0142 33.4345 17.5001Z" fill="#242424" stroke="white" stroke-width="0.2"/>
<path d="M25.933 35V34.9H25.833H25.0005C24.5957 34.9 24.268 34.5714 24.268 34.1663C24.268 33.7613 24.5955 33.4338 25.0005 33.4338H25.833H25.933V33.3338V32.5C25.933 32.0951 26.2617 31.7663 26.668 31.7663C27.0716 31.7663 27.4005 32.0949 27.4005 32.5V33.3338V33.4338H27.5005H28.333C28.7395 33.4338 29.068 33.7616 29.068 34.1663C29.068 34.5712 28.7393 34.9 28.333 34.9H27.5005H27.4005V35V35.8338C27.4005 36.2386 27.0718 36.5663 26.668 36.5663C26.2614 36.5663 25.933 36.2385 25.933 35.8338V35Z" fill="#242424" stroke="white" stroke-width="0.2"/>
<path d="M30.8345 33.4337H34.1695C34.5733 33.4337 34.902 33.7613 34.902 34.1662C34.902 34.5714 34.5731 34.9 34.1695 34.9H30.8345C30.4308 34.9 30.102 34.5713 30.102 34.1662C30.102 33.7614 30.4306 33.4337 30.8345 33.4337Z" fill="#242424" stroke="white" stroke-width="0.2"/>
</svg>
