<svg width="40" height="40" viewBox="0 0 40 40" fill="none" xmlns="http://www.w3.org/2000/svg">
<path d="M7.09698 14.8389H5.80664V16.1292H7.09698V14.8389Z" fill="#242424"/>
<path d="M38.2645 34.8389C39.3088 34.1446 39.9997 32.9589 39.9997 31.613V10.3228C39.9997 8.18798 38.2636 6.4519 36.1288 6.4519H32.903C30.7682 6.4519 29.0321 8.18798 29.0321 10.3228V18.7099H23.2257C23.2257 17.6428 22.3573 16.7744 21.2902 16.7744H19.3547C18.2876 16.7744 17.4192 17.6428 17.4192 18.7099H10.9676V10.3228C10.9676 8.18798 9.23154 6.4519 7.09674 6.4519H3.87088C1.73608 6.4519 0 8.18798 0 10.3228V31.613C0 32.9587 0.690963 34.1446 1.73554 34.8389H0V36.1292H13.5483V34.8389H9.23222C10.2773 34.1446 10.9678 32.9589 10.9678 31.613V23.2259H17.4193C17.4193 24.293 18.2878 25.1614 19.3548 25.1614H21.2903C22.3574 25.1614 23.2258 24.293 23.2258 23.2259H29.0322V31.613C29.0322 32.9587 29.7232 34.1446 30.7678 34.8389H20.0001V36.1292H40V34.8389H38.2645ZM1.29034 10.3228C1.29034 8.89968 2.44777 7.74224 3.87088 7.74224V11.3461L1.29034 13.9266V10.3228ZM1.29034 15.7512L3.87088 13.1706V18.4428L1.29034 21.0234V15.7512ZM3.87102 34.1937C2.44777 34.1937 1.29034 33.0362 1.29034 31.613V29.9447L3.87102 27.364V34.1937ZM3.87102 25.5394L1.29034 28.1201V22.8479L3.87102 20.2672V25.5394ZM9.67741 31.613C9.67741 33.0356 8.38708 34.193 7.09674 34.1937V27.3647L9.67741 29.9447V31.613ZM9.67741 28.1201L7.09674 25.5402V20.2679L9.67741 22.8479V28.1201ZM9.67741 21.0234L7.09674 18.4435V17.4197H5.80639V34.1938H5.16122V7.74224H5.80639V13.5486H7.09674V13.1712L9.67741 15.7512V21.0234ZM9.67741 13.9266L7.09674 11.3468V7.74224C8.38708 7.74292 9.67741 8.90022 9.67741 10.3228V13.9266ZM17.4192 21.9357H10.9676V20.0002H17.4192V21.9357ZM21.9354 23.2261C21.9354 23.5816 21.6464 23.8712 21.2902 23.8712H19.3547C18.9985 23.8712 18.7095 23.5816 18.7095 23.2261V18.71C18.7095 18.3545 18.9985 18.0648 19.3547 18.0648H21.2902C21.6464 18.0648 21.9354 18.3545 21.9354 18.71V23.2261ZM29.0321 21.9357H23.2257V20.0002H29.0321V21.9357ZM38.7095 28.1201L36.1288 25.5401V20.2679L38.7095 22.8479V28.1201ZM36.1287 7.74224C37.419 7.74292 38.7094 8.90022 38.7094 10.3228V13.9266L36.1287 11.3466V7.74224ZM30.3224 10.3228C30.3224 8.89968 31.4797 7.74224 32.903 7.74224V11.3461L30.3224 13.9266V10.3228ZM32.9031 34.1937C31.4799 34.1937 30.3224 33.0362 30.3224 31.613V29.9447L32.9031 27.364V34.1937ZM32.9031 25.5394L30.3224 28.1201V22.8479L32.9031 20.2672V25.5394ZM32.9031 18.4427L30.3224 21.0234V15.7512L32.9031 13.1705V18.4427ZM34.8385 34.1937H34.1933V7.74224H34.8385V16.1293H36.1288V13.1712L38.7095 15.7512V21.0234L36.1288 18.4434V17.4195H34.8385V34.1937ZM36.1288 34.1937V27.3647L38.7095 29.9447V31.613C38.7094 33.0356 37.419 34.193 36.1288 34.1937Z" fill="#242424"/>
<path d="M20.6448 21.2905H19.3545V22.5809H20.6448V21.2905Z" fill="#242424"/>
<path d="M39.9994 38.7097H6.45117V40.0001H39.9994V38.7097Z" fill="#242424"/>
<path d="M17.1292 34.8386H14.8389V36.129H17.1292V34.8386Z" fill="#242424"/>
<path d="M5.16123 38.7097H0V40.0001H5.16123V38.7097Z" fill="#242424"/>
<path d="M16.7745 3.22607H0.645508V4.51641H16.7745V3.22607Z" fill="#242424"/>
<path d="M16.7745 0.000244141H9.67773V1.29058H16.7745V0.000244141Z" fill="#242424"/>
<path d="M39.3548 3.22607H30.9678V4.51641H39.3548V3.22607Z" fill="#242424"/>
<path d="M34.1937 0.000244141H25.8066V1.29058H34.1937V0.000244141Z" fill="#242424"/>
<path d="M28.097 3.22607H25.8066V4.51641H28.097V3.22607Z" fill="#242424"/>
</svg>
