<?xml version="1.0" standalone="no"?>
<!DOCTYPE svg PUBLIC "-//W3C//DTD SVG 20010904//EN"
 "http://www.w3.org/TR/2001/REC-SVG-20010904/DTD/svg10.dtd">
<svg version="1.0" xmlns="http://www.w3.org/2000/svg"
 width="260.000000pt" height="260.000000pt" viewBox="0 0 260.000000 260.000000"
 preserveAspectRatio="xMidYMid meet">
<metadata>
Created by potrace 1.11, written by Peter Selinger 2001-2013
</metadata>
<g transform="translate(0.000000,260.000000) scale(0.100000,-0.100000)"
fill="#000000" stroke="none">
<path d="M916 2038 c5 -8 2 -9 -11 -4 -16 6 -16 4 -4 -11 8 -9 10 -14 4 -11
-5 3 -15 0 -22 -7 -10 -11 -10 -15 0 -18 7 -3 4 -6 -5 -6 -16 -1 -23 -12 -19
-33 0 -5 -7 -8 -16 -9 -10 0 -13 -3 -6 -5 7 -3 9 -12 6 -20 -3 -7 -9 -12 -13
-9 -4 3 -11 -2 -14 -11 -4 -10 -2 -13 7 -9 6 4 4 0 -5 -8 -10 -8 -15 -17 -11
-20 3 -4 2 -7 -4 -7 -6 0 -13 -9 -16 -21 -3 -12 -10 -18 -15 -15 -5 3 -8 -6
-6 -19 1 -14 -2 -23 -7 -19 -5 3 -9 -2 -9 -10 0 -9 -5 -16 -10 -16 -6 0 -10
-8 -8 -17 2 -10 -3 -17 -9 -16 -7 2 -13 -5 -13 -15 0 -10 -6 -24 -12 -31 -11
-11 -10 -13 5 -8 15 6 16 4 7 -13 -10 -20 -3 -26 24 -21 5 1 6 -5 3 -14 -4 -8
-2 -15 4 -15 6 0 8 -4 4 -9 -3 -5 -1 -12 5 -16 6 -4 8 -10 5 -15 -3 -5 4 -11
14 -15 12 -4 18 -12 14 -21 -3 -7 1 -14 8 -14 7 0 9 -3 6 -7 -4 -3 1 -12 11
-20 9 -8 11 -11 3 -7 -10 5 -8 -3 5 -26 10 -18 25 -34 31 -37 7 -3 10 -9 7
-14 -7 -11 21 -51 29 -42 4 3 7 -4 7 -16 0 -14 4 -20 11 -15 8 4 9 -1 4 -17
-7 -20 -6 -22 7 -12 12 10 15 10 15 -2 0 -8 -5 -15 -11 -16 -6 0 0 -5 13 -10
19 -8 21 -12 11 -24 -9 -11 -9 -15 -1 -15 7 0 9 -5 6 -10 -4 -6 -11 -8 -16 -5
-5 3 -6 -1 -3 -9 4 -9 1 -16 -6 -16 -7 0 -10 -7 -6 -17 4 -10 4 -14 0 -10 -9
8 -34 -11 -34 -27 0 -6 4 -4 10 4 5 8 11 12 13 10 3 -3 -8 -21 -24 -40 -17
-19 -27 -26 -23 -16 5 13 4 17 -4 12 -7 -4 -17 -4 -23 0 -8 4 -7 9 2 15 11 7
10 9 -5 9 -13 0 -17 5 -13 20 3 10 1 18 -3 17 -4 -1 -8 2 -8 6 -1 5 -10 17
-22 27 -15 13 -17 19 -8 23 8 4 7 6 -5 6 -9 1 -16 4 -16 9 3 19 -2 33 -11 27
-6 -3 -7 1 -4 9 4 11 0 16 -12 17 -18 0 -17 1 1 9 16 7 17 9 3 9 -9 1 -22 15
-30 31 -7 17 -17 30 -23 30 -5 0 -3 5 5 10 13 8 12 10 -3 10 -10 0 -15 5 -12
10 3 6 1 10 -4 10 -6 0 -11 9 -11 20 0 12 -7 20 -16 20 -14 0 -15 3 -3 18 7 9
10 14 5 10 -5 -4 -15 0 -24 9 -14 14 -17 14 -29 -3 -7 -10 -13 -26 -13 -37 0
-13 -5 -17 -16 -13 -8 3 -12 2 -9 -4 3 -6 0 -10 -7 -10 -9 0 -9 -3 2 -10 13
-8 13 -11 1 -22 -12 -11 -12 -10 -6 2 8 13 7 13 -9 1 -13 -11 -14 -16 -4 -22
11 -7 11 -9 0 -9 -7 0 -10 -4 -7 -10 4 -6 -1 -7 -11 -3 -10 4 -15 2 -11 -4 3
-5 0 -21 -8 -36 -7 -14 -10 -29 -7 -32 4 -4 0 -5 -8 -3 -8 2 -15 -4 -15 -12 0
-8 -6 -20 -14 -26 -8 -6 -11 -18 -8 -27 4 -12 2 -14 -11 -10 -9 3 -14 3 -10
-2 4 -4 0 -13 -8 -20 -14 -10 -15 -15 -3 -36 8 -13 18 -27 23 -30 5 -4 6 -14
3 -24 -5 -11 -3 -14 5 -9 7 5 9 2 5 -9 -4 -12 -1 -15 14 -12 16 3 17 1 9 -15
-14 -26 -13 -35 3 -22 10 8 18 0 36 -39 19 -40 26 -47 38 -38 11 10 12 8 7 -6
-6 -13 -4 -16 6 -10 8 5 11 3 8 -6 -3 -8 8 -22 24 -31 15 -10 28 -25 28 -35 0
-9 3 -13 7 -10 3 4 12 -1 20 -11 9 -10 12 -11 7 -2 -4 9 2 7 13 -5 11 -11 19
-23 16 -27 -2 -5 5 -8 16 -8 12 0 21 -4 21 -10 0 -5 7 -10 16 -10 8 0 12 -4 9
-10 -3 -5 1 -10 10 -10 10 0 13 -5 9 -12 -5 -8 0 -7 11 2 11 9 16 10 11 3 -6
-12 5 -18 27 -14 4 0 7 -7 7 -17 0 -14 2 -15 10 -2 8 13 10 12 10 -4 0 -12 5
-16 15 -12 8 3 21 -1 29 -9 18 -18 29 -19 21 -2 -4 6 0 4 8 -5 11 -14 16 -15
26 -5 10 9 11 8 5 -6 -5 -13 -2 -16 12 -10 12 4 15 3 10 -5 -5 -8 -2 -10 8 -6
10 4 16 1 16 -7 0 -11 3 -11 10 1 9 13 10 13 10 0 0 -13 1 -13 10 0 7 12 10
12 10 1 0 -7 6 -11 15 -7 9 3 15 0 15 -9 0 -8 5 -15 11 -15 5 0 8 4 5 8 -8 13
31 7 48 -7 9 -8 16 -9 16 -4 0 9 46 10 55 1 3 -2 28 -3 57 -1 28 1 57 -2 64
-8 10 -9 15 -7 20 5 6 16 25 23 23 9 -4 -22 2 -25 14 -9 11 15 17 17 35 7 12
-7 22 -8 21 -4 -3 19 2 27 9 15 5 -7 16 -10 25 -6 9 3 15 10 12 14 -3 5 -1 11
4 14 5 4 13 1 17 -5 5 -8 3 -9 -6 -4 -9 5 -11 4 -6 -4 4 -6 13 -8 19 -4 7 4
17 8 22 8 6 1 9 6 8 13 -2 8 4 9 23 2 16 -6 23 -6 19 0 -7 12 39 24 61 16 15
-6 15 -4 3 11 -9 11 -10 14 -1 9 6 -4 12 -2 12 3 0 6 5 11 11 11 5 0 7 -5 3
-11 -5 -8 -1 -8 13 0 11 6 23 7 27 3 4 -3 4 2 0 12 -5 14 -4 17 4 12 7 -4 12
-2 12 4 0 7 7 10 15 6 8 -3 15 -1 15 4 0 5 8 7 18 3 14 -5 13 -3 -3 10 -20 16
-20 16 3 12 14 -2 25 2 29 11 4 12 8 12 21 2 12 -10 14 -10 8 0 -7 11 17 46
25 37 3 -2 9 7 16 21 8 17 8 26 1 31 -7 4 -8 1 -3 -7 6 -9 4 -11 -4 -6 -7 5
-10 15 -7 23 3 8 2 12 -2 10 -4 -3 -13 1 -20 9 -8 9 -9 14 -2 14 6 0 4 7 -4
16 -9 8 -13 20 -10 26 4 7 2 8 -4 4 -7 -4 -12 -2 -12 4 0 6 -4 9 -8 6 -5 -3
-9 1 -9 9 0 8 5 12 11 9 6 -3 4 1 -4 8 -8 7 -24 24 -35 38 l-20 25 20 -15 c20
-15 20 -14 1 8 -11 12 -16 22 -12 22 4 0 1 7 -6 15 -30 34 -43 50 -40 52 7 8
1 23 -8 18 -5 -3 -10 2 -10 12 -1 24 -25 55 -36 45 -4 -4 -2 1 5 10 11 15 10
17 -9 13 -18 -3 -20 -2 -10 10 10 12 10 15 0 15 -7 0 -10 7 -6 15 3 8 0 14 -7
12 -7 -1 -12 9 -12 25 1 21 -2 25 -13 16 -10 -9 -12 -8 -10 3 2 8 -3 13 -11
11 -12 -3 -12 -1 0 14 8 10 10 15 4 12 -5 -3 -19 6 -30 21 -15 21 -16 23 -2
12 15 -12 17 -12 11 3 -3 9 -14 16 -23 17 -11 0 -12 2 -3 6 9 4 7 10 -8 23
-15 13 -17 19 -8 23 8 3 6 6 -5 6 -10 1 -16 5 -13 10 4 5 2 11 -3 13 -5 1 -11
10 -13 18 -2 8 -12 23 -23 33 -11 10 -15 16 -10 13 6 -2 11 4 11 14 0 10 -3
18 -6 18 -24 -2 -32 4 -27 21 3 15 0 19 -14 16 -12 -3 -16 1 -12 11 3 8 0 20
-6 28 -6 7 -8 16 -4 19 3 4 -2 9 -11 13 -9 3 -16 12 -16 19 0 7 -7 16 -16 19
-9 3 -14 12 -12 18 3 7 -4 22 -14 32 -10 11 -16 26 -14 33 5 12 -6 17 -26 14
-4 0 -5 6 -2 14 4 8 1 15 -5 15 -6 0 -11 5 -11 11 0 5 4 8 8 5 5 -3 9 1 9 8 0
8 -8 11 -19 8 -10 -2 -18 1 -18 7 0 7 5 9 13 5 6 -4 4 2 -6 13 -9 11 -14 23
-10 27 5 4 1 6 -7 4 -8 -2 -15 4 -15 13 0 9 -8 24 -18 33 -9 10 -17 26 -17 37
0 18 -8 19 -131 19 -97 0 -128 -3 -123 -12z m792 -963 c-3 -3 -9 2 -12 12 -6
14 -5 15 5 6 7 -7 10 -15 7 -18z"/>
<path d="M1605 2040 c-4 -6 -10 -8 -14 -5 -5 2 -7 -7 -5 -21 2 -19 -1 -24 -12
-20 -8 3 -12 2 -9 -3 3 -5 1 -12 -4 -15 -4 -3 -11 -19 -14 -36 -4 -17 -13 -30
-21 -30 -10 0 -13 -6 -9 -17 4 -10 2 -14 -4 -10 -6 4 -14 0 -17 -9 -4 -10 -2
-13 7 -9 6 4 5 1 -3 -7 -8 -7 -21 -20 -27 -29 -10 -13 -10 -16 2 -16 8 0 11 5
8 10 -3 6 -1 7 6 3 9 -6 9 -11 0 -22 -9 -11 -8 -14 7 -15 12 0 14 -3 6 -6 -9
-3 -7 -10 9 -24 15 -13 17 -19 8 -19 -8 -1 -6 -6 7 -13 12 -7 19 -18 17 -24
-3 -7 0 -13 7 -13 6 0 8 -4 5 -10 -3 -5 -2 -10 3 -10 5 0 15 -13 22 -30 7 -16
17 -30 22 -30 6 0 8 -9 5 -20 -3 -10 0 -18 5 -17 6 1 13 -4 16 -12 3 -9 0 -11
-9 -6 -8 5 -11 4 -6 -1 5 -5 13 -10 18 -10 22 -3 23 -5 11 -13 -10 -6 -9 -11
4 -22 10 -8 15 -9 11 -2 -4 6 -3 15 3 18 6 4 10 3 9 -2 -5 -26 2 -63 11 -58 9
6 14 -8 11 -27 0 -5 4 -8 10 -8 5 0 8 -4 5 -8 -2 -4 -1 -14 5 -22 7 -13 9 -13
9 0 0 9 6 4 14 -10 9 -18 10 -29 2 -39 -8 -11 -8 -13 2 -7 9 5 15 1 19 -13 3
-12 10 -21 15 -21 6 0 7 -7 4 -16 -3 -8 -2 -12 4 -9 6 3 10 1 10 -6 0 -6 8
-18 18 -26 9 -8 11 -12 5 -8 -22 11 -14 -5 15 -32 15 -15 21 -23 15 -19 -7 4
-13 2 -13 -3 0 -6 7 -11 16 -11 8 0 12 -5 9 -10 -3 -6 2 -13 11 -17 16 -6 16
-7 -2 -14 -18 -7 -18 -8 0 -8 12 -1 16 -6 12 -17 -3 -8 -2 -12 4 -9 6 3 10 1
10 -5 0 -6 4 -8 10 -5 6 3 7 -1 4 -9 -4 -10 -1 -16 7 -16 11 0 11 -3 -1 -11
-12 -9 -10 -10 8 -6 13 3 21 3 18 0 -3 -4 0 -13 7 -22 11 -14 10 -14 -5 -2
-21 16 -24 9 -5 -11 6 -7 20 -29 30 -48 10 -19 15 -27 13 -17 -6 19 10 24 17
5 3 -7 10 0 16 17 13 32 45 67 54 59 3 -3 4 6 3 20 -2 14 0 24 3 23 3 -1 7 1
8 6 5 16 29 35 38 29 6 -3 4 2 -4 11 -9 12 -10 17 -2 17 7 0 9 5 5 12 -5 8 -2
9 11 4 15 -5 16 -4 6 8 -10 11 -8 17 6 25 11 6 13 11 5 11 -7 0 -10 5 -7 10 4
6 10 8 14 5 5 -2 7 7 5 20 -1 14 2 25 7 25 6 0 7 5 4 10 -3 6 -1 10 6 10 9 0
9 3 0 14 -9 11 -9 16 0 22 8 5 10 3 4 -7 -5 -8 -4 -11 1 -6 5 5 10 21 10 35 3
42 3 44 17 36 10 -6 10 -4 0 7 -7 7 -13 17 -13 22 0 4 6 5 13 1 9 -6 9 -5 0 7
-15 18 -13 61 2 55 7 -2 12 2 12 10 0 7 -4 11 -9 8 -4 -3 -8 -2 -9 3 0 4 -2
16 -4 26 -2 9 1 17 7 17 6 0 7 -8 3 -17 -5 -15 -4 -16 7 -5 11 11 10 15 -2 25
-17 13 -21 102 -7 125 7 11 3 16 -14 14 -3 -1 -6 5 -6 13 0 8 7 11 16 8 13 -5
14 -3 4 7 -8 9 -9 17 -3 25 7 9 5 17 -7 26 -17 13 -17 13 -3 -6 14 -19 14 -19
-3 -6 -12 10 -15 17 -7 25 13 13 13 29 -1 21 -6 -4 -10 -1 -8 6 3 25 -1 40 -9
35 -5 -3 -9 1 -9 9 0 8 4 12 9 9 4 -3 8 0 8 5 0 6 -4 11 -10 11 -5 0 -10 7
-10 15 0 8 -5 15 -11 15 -8 0 -7 6 2 17 12 14 12 16 0 8 -11 -6 -13 -3 -9 13
4 15 2 20 -11 17 -10 -2 -18 3 -18 10 0 8 5 12 10 8 13 -8 -13 39 -32 57 -13
11 -13 12 -1 5 13 -9 13 -8 1 8 -12 15 -36 17 -242 17 -143 0 -230 -4 -234
-10z"/>
<path d="M2203 1615 c0 -8 4 -12 9 -9 4 3 8 9 8 15 0 5 -4 9 -8 9 -5 0 -9 -7
-9 -15z"/>
<path d="M2204 1576 c1 -8 5 -18 8 -22 4 -3 5 1 4 10 -1 8 -5 18 -8 22 -4 3
-5 -1 -4 -10z"/>
<path d="M2026 993 c-6 -14 -5 -15 5 -6 7 7 10 15 7 18 -3 3 -9 -2 -12 -12z"/>
</g>
</svg>
