<svg width="42" height="42" viewBox="0 0 42 42" fill="none" xmlns="http://www.w3.org/2000/svg">
<path d="M7.93152 10.7716L6.59441 13.1461C5.94801 13.1448 4.51139 13.1449 3.71807 13.1449C2.41533 13.1449 1.35655 13.7974 1.02064 14.8051C0.868358 15.2652 0.773737 15.7424 0.738941 16.2258C0.73521 16.3027 0.747325 16.3795 0.774533 16.4514C0.801741 16.5234 0.84346 16.589 0.897098 16.6442C0.95098 16.6996 1.01561 16.7435 1.08704 16.7731C1.15847 16.8027 1.23519 16.8175 1.3125 16.8164H1.31324L3.3043 16.82C2.43633 17.4809 1.87786 18.5872 1.87786 19.8617C1.87784 19.8864 1.87935 19.911 1.88238 19.9355L2.80408 27.2433C2.8168 27.744 3.00175 28.225 3.32776 28.6052C3.65376 28.9855 4.10088 29.2417 4.59375 29.3307V31.6709C4.59479 32.0359 4.73921 32.386 4.99589 32.6455C5.25257 32.9051 5.60096 33.0535 5.96597 33.0586H8.36949C8.73657 33.0542 9.08744 32.9067 9.34745 32.6475C9.60746 32.3883 9.75609 32.038 9.76172 31.6709V29.3672H30.3148C29.6473 30.0859 29.1566 30.9504 28.8817 31.8919C28.6068 32.8335 28.5553 33.8262 28.7313 34.7911C28.9073 35.7561 29.3059 36.6667 29.8955 37.4506C30.4851 38.2345 31.2494 38.87 32.1277 39.3068C32.2169 39.3504 32.3157 39.3709 32.4149 39.3663C32.514 39.3618 32.6105 39.3324 32.6954 39.2808C32.7797 39.2297 32.8497 39.158 32.8989 39.0725C32.9481 38.987 32.9748 38.8904 32.9766 38.7918V35.8058L34.9308 34.4984L36.9379 35.9058L36.9258 38.7933C36.9252 38.8912 36.9496 38.9876 36.9969 39.0734C37.0441 39.1592 37.1125 39.2314 37.1956 39.2832C37.2787 39.3351 37.3737 39.3647 37.4715 39.3694C37.5693 39.3741 37.6667 39.3537 37.7543 39.3101C38.8248 38.7734 39.7207 37.9436 40.3378 36.9174C40.9549 35.8911 41.2677 34.7107 41.2398 33.5136C41.212 32.3164 40.8445 31.1519 40.1804 30.1555C39.5162 29.1591 38.5826 28.3719 37.4883 27.8856V14.1144C38.5825 13.6286 39.5161 12.8418 40.1803 11.8457C40.8445 10.8496 41.2118 9.68519 41.2395 8.48828C41.2672 7.29137 40.9542 6.11124 40.3368 5.08546C39.7195 4.05968 38.8233 3.2305 37.7527 2.69459C37.6647 2.65078 37.567 2.63005 37.4687 2.63436C37.3705 2.63868 37.275 2.66788 37.1911 2.71924C37.1073 2.77059 37.0379 2.84241 36.9894 2.92795C36.941 3.0135 36.915 3.10995 36.9141 3.20827V6.1942L34.9598 7.50137L32.9528 6.09404L32.9648 3.20654C32.9654 3.10863 32.941 3.0122 32.8937 2.92644C32.8465 2.84068 32.7781 2.76844 32.695 2.71662C32.6119 2.6648 32.517 2.63513 32.4192 2.63042C32.3214 2.62572 32.224 2.64614 32.1363 2.68975C31.2305 3.13381 30.4453 3.79021 29.8478 4.60306C29.2502 5.41591 28.858 6.36113 28.7044 7.35823C28.5129 7.32384 28.319 7.30464 28.1245 7.3008H12.3679C10.5934 7.3008 9.01836 8.54038 7.93152 10.7716ZM1.97351 15.6793C2.00944 15.507 2.05518 15.3368 2.1105 15.1697C2.28466 14.6472 2.93082 14.296 3.71832 14.296C4.30304 14.296 5.23778 14.2975 5.94727 14.2988L5.1706 15.6752L1.97351 15.6793ZM8.61329 31.6709C8.60801 31.7334 8.58045 31.792 8.53563 31.8359C8.49081 31.8798 8.4317 31.9062 8.36908 31.9102H5.96597C5.90555 31.9054 5.84911 31.8782 5.80771 31.8339C5.76631 31.7896 5.74294 31.7315 5.74219 31.6709V29.3672H8.61329V31.6709ZM4.96404 28.2188C4.6963 28.218 4.43978 28.1111 4.25066 27.9216C4.06155 27.7321 3.95525 27.4753 3.95506 27.2076C3.95505 27.1831 3.95351 27.1586 3.95046 27.1342L3.02647 19.8305C3.04213 18.3136 4.07991 17.3742 5.11949 17.3128C5.15212 17.3141 5.1848 17.3127 5.21719 17.3086H32.3203V20.5935C31.5 20.8761 30.7692 21.7164 30.7692 22.7065C30.7692 23.6966 31.5 24.537 32.3203 24.8196V27.8856C32.1563 27.9834 31.9335 28.0547 31.7309 28.2188H4.96404ZM24.8145 16.1602C25.0359 14.9297 26.1467 13.9188 27.4805 13.9188C28.8142 13.9188 29.925 14.9297 30.1465 16.1602H24.8145ZM32.3203 21.8733V23.5397C32.1563 23.3441 31.9176 23.0436 31.9176 22.7065C31.9176 22.3695 32.1563 22.0688 32.3203 21.8733ZM31.81 4.23407L31.8052 6.39026C31.8051 6.48301 31.8275 6.57441 31.8703 6.65667C31.9132 6.73892 31.9753 6.8096 32.0513 6.86268L34.6308 8.66687C34.7255 8.73322 34.8381 8.76943 34.9537 8.77077C35.0693 8.7721 35.1827 8.73849 35.2789 8.67434L37.8155 6.97924C37.8931 6.92634 37.9563 6.85498 37.9994 6.77158C38.0425 6.68818 38.0642 6.59536 38.0625 6.50149V4.23817C39.375 5.20491 40.1043 6.70813 40.1043 8.34925C40.098 9.40319 39.772 10.4304 39.1694 11.2951C38.5667 12.1598 37.7158 12.8211 36.7292 13.1918C36.6177 13.232 36.521 13.3048 36.4515 13.4007C36.3821 13.4967 36.3432 13.6113 36.3399 13.7298V28.2703C36.3441 28.3891 36.3839 28.5038 36.4541 28.5998C36.5243 28.6957 36.6217 28.7683 36.7336 28.8082C37.7196 29.1792 38.5697 29.8408 39.1713 30.7056C39.773 31.5703 40.0979 32.5974 40.103 33.6508C40.1068 34.4474 39.9252 35.2339 39.5724 35.9482C39.2197 36.6625 38.7056 37.2848 38.0707 37.766L38.0806 35.6096C38.0812 35.517 38.0593 35.4257 38.0169 35.3434C37.9744 35.2611 37.9126 35.1904 37.8368 35.1372L35.2586 33.333C35.1641 33.2668 35.0517 33.2306 34.9363 33.2293C34.8209 33.2279 34.7077 33.2615 34.6117 33.3255L32.0753 35.0206C31.9977 35.0735 31.9344 35.1449 31.8913 35.2283C31.8481 35.3118 31.8264 35.4046 31.8281 35.4986V37.7619C30.5156 36.7951 29.7864 35.2919 29.7864 33.6508C29.7883 32.7829 30.0077 31.9294 30.4246 31.1682C30.8414 30.407 31.4425 29.7624 32.1727 29.2934C32.1948 29.2808 32.2161 29.2666 32.2362 29.2511C32.5141 29.0742 32.8091 28.9258 33.1168 28.8081C33.2239 28.766 33.3154 28.6916 33.3785 28.5953C33.4415 28.4989 33.4731 28.3854 33.4688 28.2703V13.7298C33.4729 13.6146 33.4412 13.501 33.378 13.4046C33.3149 13.3082 33.2233 13.2339 33.116 13.1918C32.2512 12.8661 31.4894 12.3145 30.9099 11.5946C30.3305 10.8746 29.9546 10.0125 29.8212 9.09804C29.6879 8.18353 29.8021 7.25001 30.1518 6.39458C30.5016 5.53916 31.0742 4.79309 31.8101 4.23398L31.81 4.23407ZM28.6116 8.51134C28.6787 10.9304 30.1875 13.1281 32.3203 14.1141V16.1602H31.3068C31.1932 15.2253 30.7413 14.3643 30.0364 13.7398C29.3314 13.1154 28.4222 12.7706 27.4805 12.7706C26.5387 12.7706 25.6295 13.1154 24.9246 13.7398C24.2196 14.3643 23.7677 15.2253 23.6541 16.1602H6.20066L8.94051 11.3184C8.94633 11.308 8.95191 11.293 8.95691 11.2824C9.46928 10.2259 10.5937 8.44924 12.3679 8.44924H28.1245C28.2886 8.45254 28.4519 8.47336 28.6116 8.51134Z" fill="#242424" stroke="#242424" stroke-width="0.2"/>
<path d="M7.33399 20.4918C6.89593 20.4918 6.46771 20.6217 6.10348 20.8651C5.73925 21.1085 5.45537 21.4544 5.28774 21.8591C5.1201 22.2638 5.07624 22.7091 5.1617 23.1388C5.24716 23.5684 5.4581 23.9631 5.76785 24.2728C6.07761 24.5826 6.47225 24.7935 6.90189 24.879C7.33153 24.9644 7.77686 24.9206 8.18157 24.7529C8.58628 24.5853 8.93219 24.3014 9.17556 23.9372C9.41893 23.5729 9.54883 23.1447 9.54883 22.7067C9.54822 22.1194 9.31468 21.5564 8.89944 21.1412C8.48421 20.726 7.92121 20.4924 7.33399 20.4918ZM7.33399 23.7731C7.12307 23.7731 6.91689 23.7105 6.74152 23.5934C6.56615 23.4762 6.42947 23.3096 6.34875 23.1148C6.26804 22.9199 6.24692 22.7055 6.28807 22.4986C6.32922 22.2918 6.43078 22.1017 6.57992 21.9526C6.72906 21.8035 6.91908 21.7019 7.12594 21.6608C7.3328 21.6196 7.54722 21.6407 7.74208 21.7214C7.93694 21.8022 8.10349 21.9388 8.22067 22.1142C8.33785 22.2896 8.40039 22.4958 8.40039 22.7067C8.4 22.9893 8.28751 23.2603 8.08759 23.4602C7.88767 23.66 7.61666 23.7724 7.33399 23.7727V23.7731Z" fill="#242424" stroke="#242424" stroke-width="0.2"/>
<path d="M12.582 23.9531H27.777C27.8694 23.9493 27.9597 23.9242 28.0407 23.8796C28.1218 23.8351 28.1914 23.7723 28.2441 23.6963C28.2968 23.6203 28.3311 23.5331 28.3444 23.4415C28.3577 23.35 28.3495 23.2567 28.3206 23.1688L27.7967 21.643C27.4367 20.5848 26.2791 19.7697 25.1606 19.7697H15.1572C14.036 19.7697 12.8849 20.5857 12.5372 21.6515L12.0362 23.1766C12.008 23.2648 12.0007 23.3584 12.0148 23.4499C12.0288 23.5414 12.0639 23.6284 12.1172 23.7041C12.1699 23.7791 12.2393 23.8406 12.3201 23.8838C12.4008 23.9271 12.4905 23.9508 12.582 23.9531ZM13.6289 22.0246C13.8221 21.4341 14.5358 20.9179 15.1572 20.9179H25.1606C25.7847 20.9179 26.5085 21.4347 26.7095 22.0254L26.9752 22.8047H13.3736L13.6289 22.0246Z" fill="#242424" stroke="#242424" stroke-width="0.2"/>
<path d="M29.7815 24.7734H11.041C10.8887 24.7734 10.7427 24.8339 10.635 24.9416C10.5273 25.0493 10.4668 25.1954 10.4668 25.3477C10.4668 25.4999 10.5273 25.646 10.635 25.7537C10.7427 25.8614 10.8887 25.9219 11.041 25.9219H29.7815C29.9338 25.9219 30.0799 25.8614 30.1876 25.7537C30.2953 25.646 30.3558 25.4999 30.3558 25.3477C30.3558 25.1954 30.2953 25.0493 30.1876 24.9416C30.0799 24.8339 29.9338 24.7734 29.7815 24.7734Z" fill="#242424" stroke="#242424" stroke-width="0.2"/>
</svg>
