<svg width="40" height="40" viewBox="0 0 40 40" fill="none" xmlns="http://www.w3.org/2000/svg">
<g clip-path="url(#clip0)">
<mask id="path-2-inside-1" fill="white">
<path d="M39.1425 4.80617C38.8783 4.74483 38.6007 4.82448 38.4098 5.01674L35.1647 8.28121H33.6089L31.8963 6.51027V4.93587L35.095 1.69582C35.2842 1.50416 35.3613 1.22859 35.2986 0.966445C35.2362 0.704603 35.043 0.493422 34.7874 0.407362C33.9838 0.136976 33.1429 -4.79517e-05 32.2877 -4.79517e-05C29.7381 -4.79517e-05 27.4219 1.18648 25.9328 3.25526C24.5391 5.19191 24.1095 7.56527 24.725 9.83669L18.959 15.5914L9.35285 5.98201V4.09602C9.35285 3.82167 9.20852 3.56715 8.97277 3.42616L3.43798 0.111341C3.12976 -0.0732902 2.73562 -0.0247672 2.48182 0.228834L0.268027 2.438C0.0142356 2.6916 -0.0343822 3.08498 0.150305 3.39259L3.471 8.91659C3.61227 9.15188 3.86698 9.29561 4.14187 9.29592L6.03093 9.29653L15.638 18.9059L9.89407 24.6386C7.6182 24.0246 5.23898 24.454 3.29763 25.8459C1.22601 27.3312 0.0380859 29.6423 0.0380859 32.1869C0.0380859 33.0401 0.175378 33.8797 0.446293 34.6814C0.532827 34.938 0.746562 35.1318 1.01075 35.1929C1.27524 35.2542 1.55258 35.1745 1.74369 34.9823L4.98855 31.7181H6.55289L8.33524 33.497V35.0583L5.06469 38.2968C4.87205 38.4875 4.79224 38.7643 4.85371 39.0283C4.91486 39.292 5.10903 39.5053 5.36618 39.5917C6.16945 39.862 7.01063 39.9991 7.86557 39.9991C10.4151 39.9991 12.7304 38.8132 14.2189 36.7456C15.6136 34.808 16.0438 32.4338 15.4286 30.1623L20.0418 25.5581L21.0985 26.7038L20.6136 27.1875C20.3078 27.4927 20.3078 27.9873 20.6136 28.2925C20.9193 28.5974 21.4147 28.5974 21.7208 28.2925L22.1598 27.8543L32.0748 38.6032C32.0822 38.6111 32.0898 38.6188 32.0975 38.6264C33.9321 40.4574 36.9045 40.4581 38.7401 38.6261C40.5704 36.7984 40.5704 33.8244 38.7401 31.9967C38.7321 31.9888 38.7239 31.9812 38.7156 31.9736L27.9289 22.0968L28.3631 21.6635C28.6688 21.3586 28.6688 20.8639 28.3631 20.5587C28.0573 20.2536 27.5619 20.2536 27.2559 20.5587L26.7743 21.0397L25.6243 19.9862L30.2598 15.3598C30.9187 15.5355 31.5988 15.6247 32.2877 15.6247C36.604 15.6247 40.1151 12.12 40.1151 7.81246C40.1151 6.95888 39.9779 6.11965 39.7069 5.31764C39.6204 5.06099 39.4067 4.8672 39.1425 4.80617ZM6.90972 7.96352C6.76295 7.81673 6.56389 7.74196 6.35597 7.74196L4.58554 7.74135L1.80729 3.11183L3.15667 1.76509L7.78729 4.53853V6.3055C7.78729 6.51241 7.86954 6.71077 8.01601 6.85726L17.8521 16.6964L16.7449 17.8012L6.90972 7.96352ZM26.8207 23.2028L37.6442 33.1128C38.8532 34.3323 38.8495 36.3067 37.6329 37.5217C36.4135 38.7387 34.4394 38.7424 33.2151 37.5323L23.2677 26.7483L26.8207 23.2028ZM25.6661 22.1454L22.2063 25.5978L21.1496 24.4522L24.5161 21.0919L25.6661 22.1454ZM32.2877 14.0622C31.603 14.0622 30.9297 13.9526 30.287 13.7365C30.0054 13.6422 29.6941 13.7149 29.4837 13.9245C25.5594 17.8412 17.1036 26.2802 13.9899 29.3881C13.7795 29.5981 13.7064 29.9087 13.8015 30.1901C14.4522 32.1185 14.1409 34.1754 12.9472 35.834C11.7568 37.4878 9.90446 38.4366 7.86557 38.4366C7.63655 38.4366 7.40874 38.4241 7.18308 38.3999L9.66932 35.9378C9.81732 35.7913 9.90079 35.5917 9.90079 35.3833V33.1732C9.90079 32.966 9.81824 32.7673 9.67146 32.6208L7.43045 30.3842C7.28368 30.2377 7.08463 30.1553 6.87701 30.1553H4.6626C4.45375 30.1553 4.25378 30.2386 4.1067 30.3863L1.64003 32.8677C1.61557 32.6425 1.60334 32.4151 1.60334 32.1866C1.60334 30.1513 2.55368 28.3029 4.21097 27.1148C5.87254 25.9234 7.93376 25.6125 9.86624 26.2622C10.1479 26.3571 10.4591 26.2842 10.6695 26.0742C10.7126 26.0315 26.1523 10.6216 26.1633 10.6106C26.3737 10.4007 26.4465 10.0903 26.3517 9.80892C25.7007 7.88051 26.0114 5.82424 27.2042 4.16683C28.3955 2.51155 30.2482 1.56245 32.2874 1.56245C32.5234 1.56245 32.7579 1.57558 32.9903 1.60121L30.5558 4.06734C30.4114 4.21352 30.3307 4.41036 30.3307 4.61543V6.82552C30.3307 7.02816 30.4093 7.22255 30.5503 7.36812L32.713 9.60476C32.8604 9.75735 33.0637 9.8434 33.2762 9.8434H35.4906C35.6992 9.8434 35.8991 9.7604 36.0462 9.61239L38.5129 7.13131C38.5374 7.35653 38.5496 7.58388 38.5496 7.81246C38.5496 11.2585 35.7404 14.0622 32.2877 14.0622Z"/>
</mask>
<path d="M39.1425 4.80617C38.8783 4.74483 38.6007 4.82448 38.4098 5.01674L35.1647 8.28121H33.6089L31.8963 6.51027V4.93587L35.095 1.69582C35.2842 1.50416 35.3613 1.22859 35.2986 0.966445C35.2362 0.704603 35.043 0.493422 34.7874 0.407362C33.9838 0.136976 33.1429 -4.79517e-05 32.2877 -4.79517e-05C29.7381 -4.79517e-05 27.4219 1.18648 25.9328 3.25526C24.5391 5.19191 24.1095 7.56527 24.725 9.83669L18.959 15.5914L9.35285 5.98201V4.09602C9.35285 3.82167 9.20852 3.56715 8.97277 3.42616L3.43798 0.111341C3.12976 -0.0732902 2.73562 -0.0247672 2.48182 0.228834L0.268027 2.438C0.0142356 2.6916 -0.0343822 3.08498 0.150305 3.39259L3.471 8.91659C3.61227 9.15188 3.86698 9.29561 4.14187 9.29592L6.03093 9.29653L15.638 18.9059L9.89407 24.6386C7.6182 24.0246 5.23898 24.454 3.29763 25.8459C1.22601 27.3312 0.0380859 29.6423 0.0380859 32.1869C0.0380859 33.0401 0.175378 33.8797 0.446293 34.6814C0.532827 34.938 0.746562 35.1318 1.01075 35.1929C1.27524 35.2542 1.55258 35.1745 1.74369 34.9823L4.98855 31.7181H6.55289L8.33524 33.497V35.0583L5.06469 38.2968C4.87205 38.4875 4.79224 38.7643 4.85371 39.0283C4.91486 39.292 5.10903 39.5053 5.36618 39.5917C6.16945 39.862 7.01063 39.9991 7.86557 39.9991C10.4151 39.9991 12.7304 38.8132 14.2189 36.7456C15.6136 34.808 16.0438 32.4338 15.4286 30.1623L20.0418 25.5581L21.0985 26.7038L20.6136 27.1875C20.3078 27.4927 20.3078 27.9873 20.6136 28.2925C20.9193 28.5974 21.4147 28.5974 21.7208 28.2925L22.1598 27.8543L32.0748 38.6032C32.0822 38.6111 32.0898 38.6188 32.0975 38.6264C33.9321 40.4574 36.9045 40.4581 38.7401 38.6261C40.5704 36.7984 40.5704 33.8244 38.7401 31.9967C38.7321 31.9888 38.7239 31.9812 38.7156 31.9736L27.9289 22.0968L28.3631 21.6635C28.6688 21.3586 28.6688 20.8639 28.3631 20.5587C28.0573 20.2536 27.5619 20.2536 27.2559 20.5587L26.7743 21.0397L25.6243 19.9862L30.2598 15.3598C30.9187 15.5355 31.5988 15.6247 32.2877 15.6247C36.604 15.6247 40.1151 12.12 40.1151 7.81246C40.1151 6.95888 39.9779 6.11965 39.7069 5.31764C39.6204 5.06099 39.4067 4.8672 39.1425 4.80617ZM6.90972 7.96352C6.76295 7.81673 6.56389 7.74196 6.35597 7.74196L4.58554 7.74135L1.80729 3.11183L3.15667 1.76509L7.78729 4.53853V6.3055C7.78729 6.51241 7.86954 6.71077 8.01601 6.85726L17.8521 16.6964L16.7449 17.8012L6.90972 7.96352ZM26.8207 23.2028L37.6442 33.1128C38.8532 34.3323 38.8495 36.3067 37.6329 37.5217C36.4135 38.7387 34.4394 38.7424 33.2151 37.5323L23.2677 26.7483L26.8207 23.2028ZM25.6661 22.1454L22.2063 25.5978L21.1496 24.4522L24.5161 21.0919L25.6661 22.1454ZM32.2877 14.0622C31.603 14.0622 30.9297 13.9526 30.287 13.7365C30.0054 13.6422 29.6941 13.7149 29.4837 13.9245C25.5594 17.8412 17.1036 26.2802 13.9899 29.3881C13.7795 29.5981 13.7064 29.9087 13.8015 30.1901C14.4522 32.1185 14.1409 34.1754 12.9472 35.834C11.7568 37.4878 9.90446 38.4366 7.86557 38.4366C7.63655 38.4366 7.40874 38.4241 7.18308 38.3999L9.66932 35.9378C9.81732 35.7913 9.90079 35.5917 9.90079 35.3833V33.1732C9.90079 32.966 9.81824 32.7673 9.67146 32.6208L7.43045 30.3842C7.28368 30.2377 7.08463 30.1553 6.87701 30.1553H4.6626C4.45375 30.1553 4.25378 30.2386 4.1067 30.3863L1.64003 32.8677C1.61557 32.6425 1.60334 32.4151 1.60334 32.1866C1.60334 30.1513 2.55368 28.3029 4.21097 27.1148C5.87254 25.9234 7.93376 25.6125 9.86624 26.2622C10.1479 26.3571 10.4591 26.2842 10.6695 26.0742C10.7126 26.0315 26.1523 10.6216 26.1633 10.6106C26.3737 10.4007 26.4465 10.0903 26.3517 9.80892C25.7007 7.88051 26.0114 5.82424 27.2042 4.16683C28.3955 2.51155 30.2482 1.56245 32.2874 1.56245C32.5234 1.56245 32.7579 1.57558 32.9903 1.60121L30.5558 4.06734C30.4114 4.21352 30.3307 4.41036 30.3307 4.61543V6.82552C30.3307 7.02816 30.4093 7.22255 30.5503 7.36812L32.713 9.60476C32.8604 9.75735 33.0637 9.8434 33.2762 9.8434H35.4906C35.6992 9.8434 35.8991 9.7604 36.0462 9.61239L38.5129 7.13131C38.5374 7.35653 38.5496 7.58388 38.5496 7.81246C38.5496 11.2585 35.7404 14.0622 32.2877 14.0622Z" fill="#242424" stroke="white" stroke-width="0.4" mask="url(#path-2-inside-1)"/>
<path d="M25.4586 15.593L25.4586 15.593L15.6631 25.3694C15.3964 25.6356 14.964 25.6356 14.6972 25.3694C14.4308 25.1033 14.4309 24.672 14.6972 24.4062L24.4926 14.6299C24.7594 14.3636 25.1918 14.3636 25.4586 14.6299C25.7252 14.896 25.7252 15.3272 25.4586 15.593Z" fill="#242424" stroke="white" stroke-width="0.2"/>
<path d="M34.3837 35.2416L34.3837 35.2416L27.328 28.2223C27.0611 27.9567 27.0603 27.5258 27.3267 27.2591L27.3267 27.2591C27.5926 26.9926 28.0253 26.9918 28.2923 27.2575L28.2923 27.2575L35.348 34.2768C35.348 34.2768 35.348 34.2768 35.348 34.2768C35.6149 34.5424 35.6157 34.9737 35.3496 35.24C35.0829 35.507 34.6504 35.507 34.3837 35.2416Z" fill="#242424" stroke="white" stroke-width="0.2"/>
</g>
<defs>
<clipPath id="clip0">
<rect width="40" height="40" fill="white"/>
</clipPath>
</defs>
</svg>
