<svg width="40" height="40" viewBox="0 0 40 40" fill="none" xmlns="http://www.w3.org/2000/svg">
<path d="M31.3444 11.6519H23.7629C23.0051 11.6519 22.3887 12.2683 22.3887 13.0261V18.0984C22.3887 18.8561 23.0051 19.4726 23.7629 19.4726H31.3444C32.1021 19.4726 32.7189 18.8561 32.7189 18.0984V13.0261C32.7189 12.2683 32.1021 11.6519 31.3444 11.6519ZM31.547 14.1317H30.4447C29.6702 14.1317 29.6686 15.3036 30.4447 15.3036H31.547C31.4701 17.8381 31.7155 18.301 31.3444 18.301C23.8199 18.2131 23.5605 18.489 23.5605 18.0984V15.3036H28.1C28.8746 15.3036 28.8761 14.1317 28.1 14.1317H23.5605C23.6161 13.3285 23.4183 12.8237 23.7629 12.8237H31.3444C31.692 12.8237 31.4927 13.3502 31.547 14.1317Z" fill="#242424"/>
<path d="M31.0299 29.9954V27.4344H31.1898C32.2567 27.4344 33.1246 26.5668 33.1246 25.4999V25.1022C33.9974 25.0684 34.6969 24.3478 34.6969 23.4671V21.4316C36.2981 21.3455 37.5744 20.0156 37.5744 18.3933V10.6418H38.0297C39.1161 10.6418 39.9999 9.75803 39.9999 8.6716V6.40415C39.9999 4.18888 38.1979 2.38682 35.9823 2.38682H10.393C8.93431 0.660753 6.28966 0.665025 4.83459 2.38682H4.01763C1.80236 2.38682 0 4.18888 0 6.40415V8.6716C0 9.75803 0.883787 10.6418 1.97052 10.6418H2.42584V27.2449C2.42584 28.0197 3.59771 28.0206 3.59771 27.2449V10.6418H8.1024V34.2056H3.59771V29.5941C3.59771 28.8193 2.42584 28.818 2.42584 29.5941V34.2056H1.41662C0.635375 34.2056 0 34.841 0 35.6222V37.5635C0 38.3444 0.635375 38.9798 1.41662 38.9798H38.5833C39.3645 38.9798 39.9999 38.3444 39.9999 37.5635V35.6222C39.9999 34.841 39.3645 34.2056 38.5833 34.2056H9.27427V21.4362H26.1907V23.4671C26.1907 24.3478 26.8902 25.0687 27.763 25.1022V25.4999C27.763 26.5668 28.6309 27.4347 29.6978 27.4347H29.858V29.9954C29.858 30.7703 31.0299 30.7712 31.0299 29.9954ZM11.0574 3.5587H35.9823C37.5515 3.5587 38.828 4.83524 38.828 6.40415V8.6716C38.828 9.11197 38.4698 9.46994 38.0294 9.46994H13.4674L10.9637 6.15024C11.3074 5.34153 11.3495 4.41319 11.0574 3.5587ZM10.2856 7.19791L16.3504 15.2387C16.7627 15.7849 15.9329 16.4261 15.5133 15.8701L9.47111 7.85892C9.77354 7.67826 10.0479 7.45517 10.2856 7.19791ZM17.286 14.5331L16.2329 13.1366C17.4334 13.2859 18.3657 14.3128 18.3657 15.553C18.3657 16.8958 17.2735 17.988 15.9308 17.988C14.4464 17.988 13.2956 16.6605 13.5248 15.1795C14.3258 16.0547 14.6545 17.2498 15.9338 17.2498C17.3263 17.2498 18.1277 15.6488 17.286 14.5331ZM1.97052 9.46994C1.53015 9.46994 1.17187 9.11166 1.17187 8.6713V6.40415C1.17187 4.83524 2.44842 3.5587 4.01763 3.5587H4.17022C3.26446 6.20975 5.5905 8.85135 8.33433 8.29776L9.21843 9.46994H1.97052ZM21.9198 35.3799C26.3372 35.3946 38.5833 35.3799 38.5833 35.3799C38.7182 35.3799 38.828 35.4898 38.828 35.6247V37.5631C38.828 37.698 38.7182 37.8079 38.5833 37.8079H1.41662C1.28174 37.8079 1.17187 37.698 1.17187 37.5631V35.6247C1.17187 35.4898 1.28174 35.3799 1.41662 35.3799H21.9198ZM7.61382 7.19761C6.25426 7.19761 5.148 6.09135 5.148 4.73179C5.148 3.37193 6.25426 2.26567 7.61382 2.26567C8.97337 2.26567 10.0796 3.37193 10.0796 4.73179C10.0796 6.09135 8.97337 7.19761 7.61382 7.19761ZM9.27427 20.2643V10.6418H10.1022L12.6596 14.0326C11.5518 16.4151 13.298 19.1599 15.9308 19.1599C17.9196 19.1599 19.5376 17.5418 19.5376 15.553C19.5376 13.3383 17.5522 11.6455 15.3683 11.9907L14.3512 10.6418H36.4022V18.3933C36.4022 19.4251 35.563 20.2643 34.5315 20.2643H9.27427ZM27.8271 23.9316C27.5711 23.9316 27.3626 23.7231 27.3626 23.4671V21.4362H33.525V23.4671C33.525 23.7231 33.3166 23.9316 33.0605 23.9316H27.8271ZM29.6978 26.2625C29.2773 26.2625 28.9349 25.9204 28.9349 25.4999V25.1035H31.9524V25.4999C31.9524 25.9204 31.6103 26.2625 31.1898 26.2625H29.6978Z" fill="#242424"/>
</svg>
