<svg width="40" height="40" viewBox="0 0 40 40" fill="none" xmlns="http://www.w3.org/2000/svg">
<path d="M39.4141 20.9766C39.0905 20.9766 38.8281 21.2389 38.8281 21.5625V37.7798C38.8281 38.3578 38.3578 38.8281 37.7798 38.8281H2.22023C1.64219 38.8281 1.17188 38.3578 1.17188 37.7798V21.5625C1.17188 21.2389 0.909531 20.9766 0.585938 20.9766C0.262344 20.9766 0 21.2389 0 21.5625V37.7798C0 39.004 0.996016 40 2.22023 40H37.7797C39.0039 40 39.9999 39.004 39.9999 37.7798V21.5625C40 21.2389 39.7377 20.9766 39.4141 20.9766Z" fill="#242424"/>
<path d="M37.7798 0H2.22023C0.996016 0 0 0.996016 0 2.22023V18.4375C0 18.7611 0.262344 19.0234 0.585938 19.0234C0.909531 19.0234 1.17188 18.7611 1.17188 18.4375V2.22023C1.17188 1.64219 1.64219 1.17188 2.22023 1.17188H37.7797C38.3578 1.17188 38.8281 1.64219 38.8281 2.22023V18.4375C38.8281 18.7611 39.0905 19.0234 39.4141 19.0234C39.7377 19.0234 40 18.7611 40 18.4375V2.22023C40 0.996016 39.004 0 37.7798 0Z" fill="#242424"/>
<path d="M32.058 7.94229C28.8374 4.7215 24.5552 2.94775 20.0004 2.94775C15.4457 2.94775 11.1635 4.7215 7.94277 7.94221C4.72199 11.163 2.94824 15.4452 2.94824 19.9999C2.94824 24.5547 4.72199 28.8369 7.9427 32.0576C11.1634 35.2784 15.4456 37.052 20.0004 37.052C24.5551 37.052 28.8373 35.2783 32.058 32.0576C35.2788 28.8369 37.0525 24.5547 37.0525 19.9999C37.0525 15.4452 35.2787 11.163 32.058 7.94229ZM20.0004 35.8803C11.244 35.8803 4.12012 28.7563 4.12012 19.9999C4.12012 11.2435 11.244 4.11963 20.0004 4.11963C28.7568 4.11963 35.8807 11.2435 35.8807 19.9999C35.8807 28.7563 28.7568 35.8803 20.0004 35.8803Z" fill="#242424"/>
<path d="M35.4077 32.9746C34.1786 32.9746 33.1787 33.9745 33.1787 35.2036C33.1787 36.4327 34.1786 37.4326 35.4077 37.4326C36.6368 37.4326 37.6367 36.4327 37.6367 35.2036C37.6367 33.9745 36.6368 32.9746 35.4077 32.9746ZM35.4077 36.2607C34.8248 36.2607 34.3506 35.7865 34.3506 35.2036C34.3506 34.6207 34.8248 34.1465 35.4077 34.1465C35.9906 34.1465 36.4648 34.6207 36.4648 35.2036C36.4648 35.7865 35.9906 36.2607 35.4077 36.2607Z" fill="#242424"/>
<path d="M4.59227 32.9746C3.3632 32.9746 2.36328 33.9745 2.36328 35.2036C2.36328 36.4327 3.3632 37.4326 4.59227 37.4326C5.82133 37.4326 6.82125 36.4327 6.82125 35.2036C6.82125 33.9745 5.82133 32.9746 4.59227 32.9746ZM4.59227 36.2607C4.00937 36.2607 3.53516 35.7865 3.53516 35.2036C3.53516 34.6207 4.00937 34.1465 4.59227 34.1465C5.17516 34.1465 5.64938 34.6207 5.64938 35.2036C5.64938 35.7865 5.17516 36.2607 4.59227 36.2607Z" fill="#242424"/>
<path d="M4.59227 2.07031C3.3632 2.07031 2.36328 3.07023 2.36328 4.2993C2.36328 5.52836 3.3632 6.52828 4.59227 6.52828C5.82133 6.52828 6.82125 5.52836 6.82125 4.2993C6.82125 3.07023 5.82133 2.07031 4.59227 2.07031ZM4.59227 5.35641C4.00937 5.35641 3.53516 4.88219 3.53516 4.2993C3.53516 3.71641 4.00937 3.24219 4.59227 3.24219C5.17516 3.24219 5.64938 3.71641 5.64938 4.2993C5.64938 4.88219 5.17516 5.35641 4.59227 5.35641Z" fill="#242424"/>
<path d="M35.4077 2.07031C34.1786 2.07031 33.1787 3.07023 33.1787 4.2993C33.1787 5.52836 34.1786 6.52828 35.4077 6.52828C36.6368 6.52828 37.6367 5.52836 37.6367 4.2993C37.6367 3.07023 36.6368 2.07031 35.4077 2.07031ZM35.4077 5.35641C34.8248 5.35641 34.3506 4.88219 34.3506 4.2993C34.3506 3.71641 34.8248 3.24219 35.4077 3.24219C35.9906 3.24219 36.4648 3.71641 36.4648 4.2993C36.4648 4.88219 35.9906 5.35641 35.4077 5.35641Z" fill="#242424"/>
<path d="M34.6394 19.1885C34.5906 18.3035 33.9141 17.564 33.0307 17.4301C31.9131 17.2606 30.6105 17.1747 29.1593 17.1747C28.0244 17.1747 26.9697 17.2271 26.1393 17.2865C27.4971 16.4029 29.2453 15.749 31.3517 15.3404C31.961 15.2221 32.4563 14.8289 32.7105 14.2615C32.9628 13.6983 32.9251 13.0454 32.6095 12.5149V12.515C31.8459 11.2308 30.8931 10.0733 29.7776 9.07442C29.4339 8.76661 28.9893 8.59708 28.5257 8.59708C28.1171 8.59708 27.7267 8.72552 27.3968 8.96849C25.4539 10.3997 23.5885 12.3936 22.4222 13.74C22.7576 12.1551 23.5314 10.4565 24.7318 8.6781C25.079 8.16364 25.1511 7.53536 24.9297 6.95442C24.7099 6.37786 24.2217 5.94286 23.6234 5.79083C22.1806 5.42427 20.6777 5.27864 19.1881 5.36052C18.3031 5.40934 17.5637 6.08599 17.4298 6.96919C17.0679 9.35481 17.1589 12.084 17.2861 13.8606C16.4026 12.5029 15.7487 10.7547 15.34 8.64833C15.1685 7.7645 14.3878 7.12302 13.4835 7.12302C13.1439 7.12302 12.8089 7.21552 12.5146 7.39052C11.2304 8.15442 10.073 9.10716 9.07416 10.2225C8.48299 10.8827 8.43846 11.884 8.9683 12.6033C10.3996 14.5463 12.3935 16.4116 13.7398 17.5779C12.155 17.2425 10.4564 16.4688 8.67799 15.2683C8.36549 15.0574 8.00252 14.9459 7.62838 14.9459C6.76041 14.9459 6.00471 15.5343 5.79065 16.3768C5.42276 17.8247 5.27791 19.3169 5.36033 20.812C5.40916 21.6969 6.0858 22.4364 6.96901 22.5703C8.08674 22.7398 9.38924 22.8258 10.8404 22.8258C11.9749 22.8258 13.0298 22.7733 13.8604 22.714C12.5027 23.5975 10.7545 24.2515 8.64807 24.6601C8.03877 24.7784 7.54354 25.1716 7.28924 25.739C7.0369 26.3022 7.07463 26.955 7.39018 27.4856C8.15409 28.7697 9.1069 29.9272 10.2221 30.926C10.5659 31.2337 11.0105 31.4033 11.474 31.4033C11.8827 31.4033 12.2731 31.2748 12.603 31.0318C14.546 29.6005 16.4113 27.6068 17.5775 26.2604C17.2421 27.8453 16.4684 29.5438 15.268 31.3222C14.9207 31.8367 14.8486 32.465 15.07 33.046C15.2898 33.6225 15.7781 34.0576 16.3764 34.2096C17.5585 34.5099 18.7775 34.6622 20.0002 34.6622C20.2696 34.6622 20.5425 34.6547 20.8117 34.6398C21.6966 34.591 22.436 33.9143 22.5699 33.0311C22.9317 30.6454 22.8409 27.9163 22.7136 26.1397C23.5971 27.4975 24.251 29.2457 24.6598 31.352C24.8312 32.2358 25.612 32.8774 26.5163 32.8775C26.8559 32.8775 27.1909 32.785 27.4852 32.61C28.7692 31.8461 29.9267 30.8933 30.9255 29.778C31.5168 29.1178 31.5614 28.1165 31.0314 27.3972C29.5999 25.454 27.6062 23.5888 26.2599 22.4225C27.8447 22.7579 29.5433 23.5317 31.3218 24.7322C31.6343 24.9431 31.9973 25.0545 32.3714 25.0545C33.2393 25.0545 33.995 24.4661 34.2091 23.6236C34.577 22.1756 34.7218 20.6834 34.6394 19.1885ZM28.0917 9.912C28.2189 9.81841 28.3689 9.76888 28.5257 9.76888C28.7004 9.76888 28.8674 9.83224 28.9959 9.94731C30.0226 10.8668 30.8996 11.9321 31.6024 13.1139C31.7231 13.3169 31.7376 13.5667 31.6411 13.7822C31.5435 13.9998 31.3615 14.1446 31.1285 14.1898C28.777 14.6461 26.8232 15.3986 25.3092 16.4299C24.7869 15.6557 24.0998 15.0016 23.2987 14.5177C24.4268 13.2143 26.2309 11.2829 28.0917 9.912ZM18.5884 7.14489C18.6396 6.80739 18.9189 6.54903 19.2526 6.53059C19.5003 6.51692 19.7517 6.51005 19.9998 6.51005C21.1249 6.51005 22.247 6.6502 23.3348 6.92661C23.5638 6.98481 23.7506 7.15122 23.8346 7.37169C23.9196 7.59466 23.8932 7.82575 23.7605 8.02255C22.421 10.007 21.5717 11.9199 21.23 13.719C21.1967 13.7125 21.1631 13.7078 21.1296 13.7018C21.0675 13.6908 21.0056 13.6793 20.9429 13.67C20.8968 13.6631 20.8504 13.6582 20.8042 13.6523C20.7471 13.6451 20.6902 13.6372 20.6326 13.6315C20.5738 13.6257 20.5146 13.6222 20.4556 13.618C20.4099 13.6148 20.3645 13.6104 20.3185 13.6081C20.2124 13.6029 20.1063 13.6 19.9999 13.6C19.9013 13.6 19.8031 13.603 19.705 13.6075C19.6862 13.6084 19.6674 13.6091 19.6486 13.6101C19.5567 13.6151 19.4652 13.6222 19.3739 13.6311C19.3508 13.6333 19.3279 13.636 19.3049 13.6385C19.2231 13.6474 19.1415 13.6576 19.0603 13.6697C19.0349 13.6734 19.0096 13.6775 18.9844 13.6815C18.9137 13.6929 18.8432 13.7056 18.7729 13.7194C18.7372 13.7264 18.7015 13.7334 18.666 13.741C18.5956 13.7561 18.5255 13.772 18.4557 13.7894C18.3319 12.0699 18.242 9.42919 18.5884 7.14489ZM10.8402 21.6538C9.44776 21.6538 8.2044 21.5723 7.14455 21.4115C6.80705 21.3604 6.54877 21.081 6.53033 20.7473C6.45448 19.3711 6.58768 17.9978 6.92627 16.6652C7.00815 16.3429 7.29682 16.1176 7.62823 16.1176C7.76791 16.1176 7.90408 16.1597 8.02221 16.2395C10.0067 17.579 11.9196 18.4283 13.7186 18.77C13.7121 18.8033 13.7074 18.8369 13.7015 18.8704C13.6904 18.9325 13.6789 18.9943 13.6696 19.0571C13.6628 19.1032 13.6578 19.1496 13.652 19.1958C13.6448 19.2529 13.6368 19.3098 13.6312 19.3674C13.6253 19.4262 13.6219 19.4854 13.6177 19.5444C13.6145 19.5901 13.61 19.6355 13.6078 19.6815C13.6025 19.7875 13.5997 19.8937 13.5997 20.0001C13.5997 20.0987 13.6027 20.1969 13.6072 20.295C13.6081 20.3138 13.6088 20.3326 13.6098 20.3515C13.6148 20.4433 13.6218 20.5348 13.6307 20.6261C13.633 20.6492 13.6356 20.6722 13.6381 20.6954C13.6471 20.7768 13.6572 20.8581 13.6692 20.9391C13.6731 20.965 13.6772 20.9908 13.6814 21.0166C13.6927 21.0868 13.7053 21.1566 13.7189 21.2264C13.726 21.2625 13.7331 21.2986 13.7407 21.3347C13.7557 21.4047 13.7717 21.4747 13.789 21.5442C12.9789 21.6023 11.9481 21.6538 10.8402 21.6538ZM9.91174 11.9082C9.70932 11.6333 9.72416 11.2531 9.94713 11.0041C10.8665 9.97755 11.9318 9.10059 13.1135 8.39763C13.2267 8.33036 13.3546 8.29481 13.4835 8.29481C13.8278 8.29481 14.1247 8.53731 14.1896 8.87153C14.6458 11.223 15.3983 13.1768 16.4296 14.6908C15.6554 15.2131 15.0013 15.9002 14.5174 16.7013C13.2142 15.5733 11.2826 13.769 9.91174 11.9082ZM11.9079 30.0882C11.7809 30.1818 11.6308 30.2313 11.4739 30.2313C11.2993 30.2313 11.1323 30.1679 11.0038 30.0529C9.97721 29.1335 9.10026 28.0682 8.39721 26.8864C8.27643 26.6833 8.26198 26.4335 8.35846 26.2181C8.45604 26.0004 8.63807 25.8556 8.87112 25.8104C11.2226 25.3541 13.1764 24.6016 14.6903 23.5703C15.2127 24.3445 15.8998 24.9986 16.7009 25.4825C15.573 26.7858 13.7688 28.7174 11.9079 30.0882ZM21.4114 32.8554C21.3602 33.1929 21.0808 33.4511 20.7471 33.4696C19.3768 33.5451 17.9928 33.411 16.665 33.0736C16.436 33.0154 16.2491 32.849 16.1651 32.6286C16.0802 32.4056 16.1065 32.1745 16.2393 31.9777C17.5789 29.9932 18.4281 28.0804 18.7697 26.2813C18.8023 26.2877 18.8352 26.2922 18.8678 26.2981C18.9306 26.3093 18.9933 26.3209 19.0567 26.3304C19.1033 26.3373 19.1502 26.3423 19.1971 26.3483C19.2535 26.3554 19.3099 26.3633 19.3668 26.3689C19.4267 26.3748 19.4868 26.3783 19.5469 26.3826C19.5917 26.3858 19.6361 26.3901 19.6812 26.3924C19.7872 26.3976 19.8935 26.4005 19.9999 26.4005C20.0985 26.4005 20.1968 26.3976 20.2949 26.393C20.3136 26.3922 20.3324 26.3915 20.3512 26.3904C20.4431 26.3854 20.5348 26.3784 20.6261 26.3695C20.6491 26.3672 20.6719 26.3647 20.6948 26.3622C20.7767 26.3533 20.8585 26.343 20.9399 26.3309C20.965 26.3272 20.9899 26.3232 21.0149 26.3192C21.0859 26.3078 21.1566 26.295 21.2271 26.2812C21.2627 26.2743 21.2983 26.2673 21.3337 26.2597C21.404 26.2447 21.4742 26.2287 21.5441 26.2113C21.6678 27.9304 21.7577 30.5711 21.4114 32.8554ZM22.8164 24.4015C22.7572 24.4397 22.6972 24.4765 22.6364 24.5123C22.6338 24.5138 22.6312 24.5153 22.6286 24.5168C22.568 24.5522 22.5066 24.5867 22.4444 24.6197C22.4435 24.6202 22.4427 24.6208 22.4418 24.6213C22.2549 24.7204 22.0614 24.8083 21.862 24.8846C21.8614 24.8848 21.8606 24.885 21.86 24.8852C21.7887 24.9125 21.7169 24.9379 21.6447 24.9619C21.6398 24.9636 21.6349 24.9653 21.63 24.9669C21.5648 24.9885 21.4992 25.0083 21.4333 25.0272C21.4182 25.0315 21.4031 25.0359 21.388 25.04C21.3299 25.0561 21.2716 25.0709 21.2131 25.085C21.1884 25.0908 21.1637 25.0966 21.1389 25.1022C21.0874 25.1137 21.0358 25.1245 20.984 25.1344C20.9506 25.1408 20.9171 25.1467 20.8836 25.1524C20.8382 25.1602 20.7928 25.1678 20.7471 25.1743C20.7054 25.1804 20.6635 25.1854 20.6214 25.1904C20.5821 25.195 20.5427 25.2 20.5032 25.2039C20.4515 25.2089 20.3993 25.2123 20.3472 25.2158C20.316 25.2178 20.2849 25.2206 20.2538 25.2222C20.1696 25.2262 20.085 25.2286 19.9999 25.2286C19.9196 25.2286 19.8399 25.2261 19.7605 25.2225C19.7362 25.2214 19.7119 25.2198 19.6876 25.2184C19.6296 25.215 19.572 25.2105 19.5146 25.2052C19.4903 25.2029 19.466 25.201 19.4418 25.1984C19.3664 25.1904 19.2913 25.181 19.2168 25.1697C19.1953 25.1665 19.1739 25.1623 19.1523 25.1588C19.0976 25.1498 19.0431 25.1402 18.989 25.1296C18.9577 25.1234 18.9265 25.1168 18.8953 25.11C18.8497 25.1002 18.8043 25.0896 18.7591 25.0786C18.7282 25.071 18.6973 25.0638 18.6665 25.0557C18.39 24.9827 18.1228 24.8868 17.8661 24.7715C17.865 24.771 17.8639 24.7704 17.8628 24.7698C16.9392 24.3542 16.1494 23.6709 15.6017 22.8218C15.6004 22.8198 15.5992 22.8178 15.5978 22.8158C15.56 22.757 15.5234 22.6975 15.4879 22.6371C15.4861 22.634 15.4844 22.6308 15.4825 22.6278C15.4473 22.5675 15.4131 22.5065 15.3802 22.4447C15.3797 22.4439 15.3792 22.4432 15.3788 22.4423C15.2796 22.2554 15.1917 22.0618 15.1154 21.8625C15.1152 21.8618 15.115 21.861 15.1147 21.8603C15.0874 21.7887 15.0618 21.7167 15.0377 21.6443C15.0362 21.6397 15.0346 21.6353 15.0331 21.6308C15.0114 21.5652 14.9916 21.4993 14.9726 21.4331C14.9684 21.4183 14.9641 21.4036 14.9599 21.3886C14.9438 21.3304 14.9289 21.2718 14.9149 21.213C14.909 21.1886 14.9033 21.164 14.8978 21.1395C14.8863 21.0879 14.8755 21.0361 14.8655 20.9841C14.8592 20.9509 14.8533 20.9176 14.8476 20.8842C14.8398 20.8386 14.8322 20.793 14.8256 20.7472C14.8196 20.7057 14.8146 20.6638 14.8096 20.6219C14.8049 20.5825 14.7999 20.543 14.7961 20.5034C14.7912 20.4518 14.7877 20.3997 14.7842 20.3475C14.7822 20.3163 14.7793 20.2852 14.7778 20.254C14.7738 20.1698 14.7714 20.0852 14.7714 20.0001C14.7714 19.9199 14.7739 19.8402 14.7775 19.7608C14.7786 19.7365 14.7802 19.7122 14.7816 19.6878C14.785 19.63 14.7895 19.5724 14.7948 19.515C14.7971 19.4907 14.799 19.4663 14.8016 19.442C14.8096 19.3666 14.819 19.2917 14.8303 19.2172C14.8335 19.1954 14.8378 19.1736 14.8414 19.1518C14.8503 19.0975 14.8599 19.0433 14.8704 18.9895C14.8766 18.958 14.8832 18.9267 14.89 18.8953C14.8999 18.8498 14.9104 18.8047 14.9214 18.7596C14.929 18.7286 14.9363 18.6975 14.9445 18.6666C15.0174 18.3901 15.1133 18.123 15.2285 17.8664C15.2291 17.8653 15.2297 17.8642 15.2303 17.8631C15.6459 16.9394 16.3292 16.1497 17.1783 15.6019C17.1803 15.6007 17.1823 15.5994 17.1842 15.5981C17.2431 15.5603 17.3026 15.5236 17.363 15.4882C17.3661 15.4864 17.3692 15.4847 17.3723 15.4828C17.4326 15.4475 17.4935 15.4133 17.5553 15.3804C17.5562 15.38 17.5569 15.3794 17.5578 15.379C17.7445 15.28 17.9379 15.1921 18.1371 15.1159C18.138 15.1156 18.1389 15.1154 18.1398 15.115C18.2114 15.0877 18.2834 15.0622 18.3558 15.038C18.3603 15.0365 18.3648 15.0349 18.3693 15.0334C18.4349 15.0118 18.5008 14.9919 18.567 14.9729C18.5818 14.9687 18.5965 14.9644 18.6114 14.9603C18.6697 14.9441 18.7283 14.9293 18.7871 14.9152C18.8115 14.9093 18.836 14.9036 18.8606 14.8982C18.9122 14.8866 18.964 14.8758 19.016 14.8658C19.0492 14.8595 19.0824 14.8536 19.1159 14.8479C19.1614 14.8401 19.2071 14.8325 19.2528 14.8259C19.2944 14.82 19.3363 14.8149 19.3781 14.81C19.4176 14.8053 19.4571 14.8003 19.4967 14.7965C19.5483 14.7915 19.6004 14.788 19.6525 14.7846C19.6838 14.7825 19.7149 14.7797 19.7461 14.7782C19.8303 14.7741 19.9149 14.7718 19.9999 14.7718C20.0802 14.7718 20.1599 14.7743 20.2392 14.7779C20.2636 14.779 20.2879 14.7805 20.3123 14.7819C20.3701 14.7854 20.4277 14.7898 20.485 14.7951C20.5094 14.7974 20.5338 14.7993 20.5581 14.8019C20.6335 14.81 20.7084 14.8193 20.7828 14.8306C20.8047 14.8339 20.8264 14.8381 20.8482 14.8417C20.9026 14.8506 20.9567 14.8602 21.0106 14.8708C21.0421 14.8769 21.0734 14.8836 21.1048 14.8904C21.1503 14.9002 21.1954 14.9108 21.2405 14.9218C21.2715 14.9293 21.3026 14.9366 21.3335 14.9448C21.6099 15.0178 21.8771 15.1136 22.1337 15.2289C22.1348 15.2294 22.1359 15.23 22.137 15.2306C23.0606 15.6462 23.8504 16.3295 24.3981 17.1786C24.3994 17.1806 24.4006 17.1826 24.402 17.1846C24.4398 17.2434 24.4764 17.3029 24.5119 17.3633C24.5137 17.3665 24.5154 17.3696 24.5173 17.3726C24.5525 17.4329 24.5867 17.4939 24.6196 17.5557C24.6201 17.5565 24.6206 17.5572 24.621 17.5581C24.7202 17.745 24.8081 17.9386 24.8844 18.1379C24.8846 18.1386 24.8848 18.1394 24.8851 18.1401C24.9124 18.2116 24.9379 18.2836 24.9621 18.3559C24.9636 18.3606 24.9653 18.3652 24.9667 18.3698C24.9883 18.4352 25.0081 18.5011 25.0271 18.5671C25.0314 18.582 25.0358 18.5969 25.0399 18.6119C25.056 18.6701 25.0708 18.7286 25.0849 18.7872C25.0907 18.8118 25.0964 18.8364 25.102 18.8611C25.1135 18.9126 25.1243 18.9643 25.1343 19.0162C25.1406 19.0494 25.1465 19.0829 25.1522 19.1163C25.16 19.1618 25.1676 19.2074 25.1742 19.2531C25.1803 19.2947 25.1853 19.3366 25.1903 19.3786C25.1949 19.418 25.1999 19.4574 25.2038 19.497C25.2088 19.5487 25.2122 19.6008 25.2156 19.6529C25.2177 19.6841 25.2205 19.7153 25.2221 19.7465C25.2261 19.8307 25.2285 19.9153 25.2285 20.0004C25.2285 20.0807 25.226 20.1604 25.2224 20.2397C25.2213 20.2641 25.2197 20.2884 25.2183 20.3128C25.2149 20.3706 25.2104 20.4282 25.2051 20.4855C25.2028 20.5099 25.2009 20.5343 25.1983 20.5586C25.1903 20.634 25.1809 20.7089 25.1696 20.7833C25.1664 20.8052 25.1621 20.8269 25.1585 20.8487C25.1496 20.9031 25.14 20.9572 25.1295 21.0111C25.1233 21.0425 25.1167 21.0739 25.1099 21.1053C25.1 21.1508 25.0895 21.1959 25.0785 21.241C25.0709 21.272 25.0636 21.3031 25.0554 21.334C24.9824 21.6104 24.8866 21.8775 24.7714 22.1342C24.7708 22.1353 24.7702 22.1364 24.7696 22.1375C24.3539 23.0613 23.6704 23.8514 22.8209 24.3991C22.8193 24.3997 22.8178 24.4006 22.8164 24.4015ZM30.0879 28.0921C30.2904 28.3669 30.2755 28.7472 30.0525 28.9961C29.1332 30.0228 28.0678 30.8997 26.8862 31.6026C26.7731 31.6699 26.6451 31.7054 26.5162 31.7054C26.1719 31.7054 25.8749 31.4629 25.8102 31.1287C25.3539 28.7772 24.6014 26.8235 23.5701 25.3095C24.3443 24.7872 24.9984 24.1 25.4822 23.299C26.7856 24.4269 28.7171 26.2311 30.0879 28.0921ZM33.0735 23.3349C32.9915 23.6573 32.7028 23.8825 32.3715 23.8825C32.2319 23.8825 32.0956 23.8403 31.9776 23.7606C29.993 22.4211 28.0802 21.5718 26.2812 21.2301C26.2878 21.1965 26.2924 21.1626 26.2985 21.129C26.3095 21.0672 26.3209 21.0058 26.3301 20.9434C26.3371 20.8962 26.3422 20.8488 26.3482 20.8015C26.3553 20.7454 26.3631 20.6895 26.3687 20.6329C26.3746 20.5732 26.3781 20.5131 26.3824 20.4531C26.3856 20.4082 26.3899 20.3636 26.3922 20.3186C26.3974 20.2125 26.4003 20.1063 26.4003 19.9998C26.4003 19.9012 26.3974 19.803 26.3928 19.705C26.392 19.6861 26.3913 19.6673 26.3903 19.6485C26.3853 19.5567 26.3782 19.4651 26.3693 19.3739C26.3671 19.3508 26.3644 19.3277 26.3619 19.3046C26.353 19.2231 26.3428 19.1418 26.3308 19.0608C26.327 19.0349 26.3228 19.0091 26.3187 18.9833C26.3074 18.9132 26.2948 18.8433 26.2811 18.7736C26.2741 18.7374 26.267 18.7013 26.2593 18.6654C26.2443 18.5953 26.2284 18.5254 26.211 18.4558C27.0207 18.398 28.0514 18.3465 29.1594 18.3465C30.552 18.3465 31.7954 18.4279 32.8552 18.5886C33.1927 18.6398 33.451 18.9192 33.4694 19.2529C33.5453 20.6289 33.4121 22.0022 33.0735 23.3349Z" fill="#242424"/>
</svg>
