<svg width="14" height="14" viewBox="0 0 14 14" fill="none" xmlns="http://www.w3.org/2000/svg">
<path d="M13.6861 11.0644L11.5241 8.90207C11.0934 8.47316 10.3802 8.48619 9.9346 8.932L8.84533 10.021C8.77652 9.98309 8.70529 9.94347 8.63039 9.90144C7.94253 9.52031 7.00108 8.99792 6.0104 8.00651C5.01678 7.01301 4.49391 6.07011 4.1116 5.38181C4.07126 5.30889 4.03261 5.23858 3.99444 5.17182L4.7255 4.44185L5.08491 4.08199C5.53125 3.63554 5.54355 2.92258 5.11391 2.49241L2.95183 0.329853C2.52219 -0.0997067 1.80871 -0.0866751 1.36238 0.359778L0.753031 0.972625L0.769683 0.989156C0.56536 1.24987 0.394622 1.55056 0.267564 1.87482C0.15044 2.18348 0.0775198 2.47802 0.0441766 2.77316C-0.241312 5.13992 0.840231 7.30297 3.7754 10.2382C7.83269 14.2952 11.1023 13.9887 11.2434 13.9737C11.5506 13.937 11.845 13.8636 12.1442 13.7474C12.4657 13.6218 12.7662 13.4513 13.0267 13.2475L13.04 13.2593L13.6573 12.6548C14.1027 12.2084 14.1156 11.4952 13.6861 11.0644Z" fill="#0E8EEB"/>
</svg>
