<svg width="14" height="14" viewBox="0 0 14 14" fill="none" xmlns="http://www.w3.org/2000/svg">
<g clip-path="url(#clip0)">
<path d="M1.34372 4.8911C1.52082 5.01607 2.05466 5.38723 2.94527 6.0044C3.8359 6.62156 4.51819 7.09676 4.99216 7.43002C5.04423 7.46655 5.15486 7.54596 5.32411 7.66836C5.49338 7.79084 5.63403 7.88981 5.74595 7.96531C5.85795 8.04078 5.99334 8.12544 6.15227 8.21916C6.31114 8.3128 6.46091 8.38323 6.60153 8.42986C6.74218 8.47687 6.87238 8.50016 6.99215 8.50016H7H7.00788C7.12765 8.50016 7.2579 8.47685 7.39855 8.42986C7.53912 8.38323 7.68902 8.31272 7.84776 8.21916C8.00658 8.12533 8.14197 8.04075 8.25397 7.96531C8.36597 7.88981 8.50651 7.79084 8.67584 7.66836C8.84505 7.54585 8.95582 7.46655 9.0079 7.43002C9.48698 7.09676 10.7058 6.25037 12.6641 4.89094C13.0443 4.62543 13.3619 4.30505 13.6171 3.93003C13.8725 3.55518 14 3.16193 14 2.75052C14 2.40672 13.8762 2.11242 13.6288 1.86765C13.3814 1.62283 13.0884 1.50049 12.75 1.50049H1.24995C0.848933 1.50049 0.540324 1.63588 0.324178 1.90668C0.108059 2.17752 0 2.51607 0 2.92228C0 3.2504 0.143277 3.60596 0.429693 3.98875C0.716082 4.37157 1.02086 4.67238 1.34372 4.8911Z" fill="#0E8EEB"/>
<path d="M13.2186 5.72702C11.5105 6.88317 10.2134 7.78168 9.32814 8.42238C9.03128 8.64104 8.79045 8.81174 8.6055 8.93405C8.42055 9.05645 8.17457 9.18145 7.86722 9.30899C7.55999 9.43673 7.27365 9.5004 7.00798 9.5004H7.00001H6.99216C6.72654 9.5004 6.44004 9.43673 6.1328 9.30899C5.82556 9.18145 5.57943 9.05645 5.39453 8.93405C5.20969 8.81174 4.96878 8.64104 4.67194 8.42238C3.96877 7.90679 2.67453 7.00822 0.789141 5.72702C0.492191 5.52924 0.229171 5.30253 0 5.04736V11.2503C0 11.5943 0.122343 11.8884 0.367166 12.1332C0.611934 12.3781 0.906258 12.5005 1.25003 12.5005H12.7501C13.0937 12.5005 13.388 12.3781 13.6328 12.1332C13.8777 11.8883 14 11.5943 14 11.2503V5.04736C13.776 5.29725 13.5157 5.52396 13.2186 5.72702Z" fill="#0E8EEB"/>
</g>
<defs>
<clipPath id="clip0">
<rect width="14" height="14" fill="white"/>
</clipPath>
</defs>
</svg>
