<svg width="44" height="58" viewBox="0 0 44 58" fill="none" xmlns="http://www.w3.org/2000/svg">
<path d="M7.76 58V47.12H0.8V41.92H7.76V34.8H0.8V28.72H7.76V0.879981H22.8C29.7867 0.879981 34.96 2.29332 38.32 5.11998C41.7333 7.94665 43.44 12.0533 43.44 17.44C43.44 22.88 41.6 27.1466 37.92 30.24C34.24 33.28 28.8267 34.8 21.68 34.8H14.96V41.92H28.16V47.12H14.96V58H7.76ZM14.96 28.72H20.64C25.4933 28.72 29.2533 27.92 31.92 26.32C34.64 24.72 36 21.84 36 17.68C36 14.0533 34.88 11.36 32.64 9.59998C30.4 7.83998 26.9067 6.95998 22.16 6.95998H14.96V28.72Z" fill="#242424"/>
</svg>
