<svg width="21" height="18" viewBox="0 0 21 18" fill="none" xmlns="http://www.w3.org/2000/svg">
<path d="M18.6302 6.22142H17.3413C17.4927 7.07131 17.1293 7.96721 16.3521 8.44826C16.0087 8.66064 15.6147 8.77302 15.2121 8.77302C14.4548 8.77302 13.7649 8.38871 13.3669 7.74488C13.0855 7.28955 12.9943 6.74424 13.0885 6.22138H7.16166C7.25543 6.74424 7.16426 7.28951 6.88288 7.74517C6.48524 8.38866 5.79537 8.77298 5.03801 8.77298C4.63517 8.77298 4.24117 8.6606 3.89753 8.44822C3.12053 7.96717 2.75705 7.07127 2.90853 6.22138H1.61971C0.725019 6.22138 0 6.94671 0 7.84179C0 8.73637 0.725019 9.46166 1.61971 9.46166H1.79838L2.98617 16.6888C3.11071 17.4448 3.76366 18 4.52998 18H15.72C16.4863 18 17.1392 17.4448 17.2637 16.6888L18.4511 9.46174H18.6302C19.5249 9.46174 20.25 8.73637 20.25 7.84183C20.25 6.94675 19.5248 6.22142 18.6302 6.22142ZM6.90651 16.1252C6.85759 16.1324 6.80916 16.1362 6.76118 16.1362C6.28846 16.1362 5.87412 15.7899 5.80127 15.3079L5.1286 10.8226C5.04894 10.2914 5.41452 9.79653 5.94545 9.71683C6.47703 9.63945 6.9707 10.0029 7.05069 10.5337L7.72353 15.0195C7.80319 15.5505 7.43744 16.0455 6.90651 16.1252ZM11.0969 15.1636C11.0969 15.7008 10.6621 16.1361 10.1253 16.1361C9.58836 16.1361 9.15372 15.7007 9.15372 15.1636V10.6779C9.15372 10.1412 9.5884 9.70586 10.1253 9.70586C10.6621 9.70586 11.0969 10.1412 11.0969 10.6779V15.1636ZM15.1217 10.8225L14.4486 15.3078C14.3762 15.7899 13.9619 16.1361 13.4892 16.1361C13.441 16.1361 13.3927 16.1323 13.3437 16.1251C12.8128 16.0454 12.4472 15.5504 12.5268 15.0194L13.1996 10.5336C13.2795 10.0025 13.7712 9.63673 14.3048 9.71671C14.8356 9.7964 15.2013 10.2914 15.1217 10.8225Z" fill="#0E8EEB"/>
<path d="M4.23811 7.8971C4.48715 8.05145 4.764 8.12495 5.03755 8.12495C5.54665 8.12495 6.04441 7.86912 6.33132 7.4042C6.59596 6.97602 6.61873 6.46959 6.44431 6.03604L9.32983 1.37049C9.59059 0.948619 9.46019 0.396048 9.0385 0.134681C8.89139 0.0437621 8.7282 1.52588e-05 8.56727 1.52588e-05C8.2667 1.52588e-05 7.97315 0.151107 7.80294 0.426093L4.91837 5.09165C4.45295 5.12904 4.00998 5.37476 3.74534 5.80282C3.30324 6.51742 3.52447 7.45509 4.23811 7.8971Z" fill="#0E8EEB"/>
<path d="M13.8049 6.03604C13.6305 6.46959 13.6528 6.97602 13.9175 7.4042C14.2049 7.86916 14.7022 8.12495 15.2117 8.12495C15.4852 8.12495 15.7617 8.05145 16.0112 7.8971C16.7248 7.45509 16.9456 6.51738 16.5036 5.80282C16.2397 5.37476 15.7963 5.12904 15.3313 5.09165L12.4456 0.426093C12.2758 0.151066 11.9822 1.52588e-05 11.6816 1.52588e-05C11.5208 1.52588e-05 11.3576 0.0437621 11.2102 0.134681C10.7887 0.396048 10.6593 0.948619 10.919 1.37049L13.8049 6.03604Z" fill="#0E8EEB"/>
</svg>
