<svg width="28" height="29" viewBox="0 0 28 29" fill="none" xmlns="http://www.w3.org/2000/svg">
<path d="M3.26645 21.6325H0.46645V16.4753L4.66645 9.91158H9.7998V21.6325H7.93315" fill="#0E8EEB"/>
<path d="M23.7999 21.6324H27.5332V6.62975H9.79985V21.6324H19.1332" fill="#0E8EEB"/>
<path d="M24.7332 19.2882H27.5332V20.2263H24.7332V19.2882Z" fill="#F46B27"/>
<path d="M9.80017 19.2882H18.2002V20.2263H9.80017V19.2882Z" fill="#F46B27"/>
<path d="M0.46636 19.2882H2.33301V20.2263H0.46636V19.2882Z" fill="#DBDBDB"/>
<path d="M9.80044 8.03625H26.1338V8.97432H9.80044V8.03625Z" fill="#F46B27"/>
<path d="M21.4665 23.9766C20.1778 23.9766 19.1331 22.9271 19.1331 21.6324C19.1331 20.3378 20.1778 19.2882 21.4665 19.2882C22.7551 19.2882 23.7998 20.3378 23.7998 21.6324C23.7998 22.9271 22.7551 23.9766 21.4665 23.9766Z" fill="#0E8EEB"/>
<path d="M5.60024 23.9766C4.31157 23.9766 3.26689 22.9271 3.26689 21.6324C3.26689 20.3378 4.31157 19.2882 5.60024 19.2882C6.88892 19.2882 7.93359 20.3378 7.93359 21.6324C7.93359 22.9271 6.88892 23.9766 5.60024 23.9766Z" fill="#0E8EEB"/>
<path d="M3.4676 11.7869H7.93359V16.0064H0.765594L3.4676 11.7869Z" fill="#87CED9"/>
<path d="M4.27465 9.65842C4.36051 9.5243 4.508 9.44321 4.66665 9.44277H9.3333V6.62977C9.3333 6.371 9.54237 6.16096 9.79995 6.16096H27.5334C27.7909 6.16096 28 6.371 28 6.62977V21.6325C28 21.8912 27.7909 22.1013 27.5334 22.1013H24.2247C23.9578 23.6316 22.5069 24.6546 20.9837 24.3868C19.8222 24.1824 18.9122 23.2687 18.7087 22.1013H8.35806C8.09113 23.6316 6.64027 24.6546 5.11706 24.3868C3.95555 24.1824 3.04555 23.2687 2.84206 22.1013H0.466705C0.209127 22.1013 5.72205e-05 21.8912 5.72205e-05 21.6325V16.4753C5.72205e-05 16.3853 0.0261974 16.2976 0.0747051 16.2221L4.27465 9.65842ZM3.73335 12.2558L1.61935 15.5376H7.46665V12.2558H3.73335ZM21.4666 23.5078C22.4975 23.5078 23.3333 22.6681 23.3333 21.6325C23.3333 20.5968 22.4975 19.7571 21.4666 19.7571C20.4358 19.7571 19.6 20.5968 19.6 21.6325C19.6 22.6681 20.4358 23.5078 21.4666 23.5078ZM21.4666 18.8195C22.8321 18.8209 23.9969 19.811 24.2246 21.1636H27.0666V20.226H24.7333V19.2883H27.0666V7.09859H10.2666V8.03627H26.1334V8.97396H10.2667V19.2883H18.2V20.226H10.2666V21.1636H18.7086C18.9364 19.8115 20.1012 18.8208 21.4666 18.8195ZM5.6 23.5078C6.63086 23.5078 7.46665 22.6681 7.46665 21.6325C7.46665 20.5968 6.63086 19.7571 5.6 19.7571C4.56914 19.7571 3.73335 20.5968 3.73335 21.6325C3.73335 22.6681 4.56914 23.5078 5.6 23.5078ZM2.842 21.1636C3.10893 19.6333 4.55979 18.6103 6.083 18.878C7.24451 19.0825 8.15451 19.9962 8.358 21.1636H9.33335V10.3805H4.92335L4.32135 11.3181H7.93335C8.19093 11.3181 8.4 11.5282 8.4 11.787V16.0065C8.4 16.2652 8.19093 16.4753 7.93335 16.4753H1.022L0.933353 16.6113V19.2883H2.33335V20.226H0.933353V21.1636H2.842V21.1636Z" fill="black"/>
</svg>
