<svg width="40" height="40" viewBox="0 0 40 40" fill="none" xmlns="http://www.w3.org/2000/svg">
<g clip-path="url(#clip0)">
<path d="M8.75097 31.3589C8.12574 30.7337 7.29448 30.3894 6.41042 30.3894C5.88815 30.3894 5.38471 30.5105 4.93089 30.7377C0.471268 24.4194 0.455799 15.7612 4.96862 9.42755C5.21893 9.07614 5.13706 8.58833 4.78565 8.33794C4.43424 8.08755 3.94643 8.16942 3.69604 8.52083C1.20674 12.0145 -0.0702959 16.1401 0.00298549 20.4516C0.0727513 24.5547 1.36103 28.4469 3.73456 31.751C2.79143 33.0448 2.90307 34.8731 4.06987 36.04C4.71518 36.6853 5.56276 37.0079 6.41042 37.0079C7.25808 37.0079 8.10566 36.6853 8.75097 36.04C10.0415 34.7494 10.0415 32.6496 8.75097 31.3589ZM7.64605 34.9351C6.96456 35.6164 5.85604 35.6164 5.17471 34.9351C4.49331 34.2537 4.49331 33.145 5.17471 32.4637C5.50479 32.1336 5.94362 31.9518 6.41034 31.9518C6.87706 31.9518 7.31597 32.1336 7.64597 32.4637C8.32745 33.1451 8.32745 34.2538 7.64605 34.9351Z" fill="#242424"/>
<path d="M31.8721 35.2457C31.6197 34.896 31.1314 34.8173 30.7814 35.07C28.548 36.6838 26.0373 37.753 23.319 38.2477C22.6892 38.3624 22.0468 38.1936 21.5567 37.7847C21.0702 37.3787 20.7912 36.7823 20.7912 36.1485V30.4221H20.8594C21.764 30.4221 22.5 29.6862 22.5 28.7815V27.4625C25.1464 26.4523 27.0313 23.8878 27.0313 20.8909V17.1921C28.2903 16.8482 29.2188 15.695 29.2188 14.3284C29.2188 12.8239 28.0935 11.5781 26.6407 11.3861V6.51587C26.6407 5.22353 25.5892 4.17212 24.2969 4.17212C23.0046 4.17212 21.9531 5.22353 21.9531 6.51587V11.3596H18.0469V6.51587C18.0469 5.22353 16.9955 4.17212 15.7031 4.17212C14.4108 4.17212 13.3594 5.22353 13.3594 6.51587V11.3861C11.9065 11.5781 10.7812 12.8239 10.7812 14.3284C10.7812 15.695 11.7097 16.8482 12.9688 17.1921V20.8909C12.9688 23.8878 14.8537 26.4523 17.5 27.4625V28.7815C17.5 29.6862 18.236 30.4222 19.1406 30.4222H19.2287V36.1486C19.2287 37.2472 19.7124 38.2808 20.5556 38.9845C21.2287 39.546 22.0674 39.8456 22.929 39.8456C23.1516 39.8456 23.3756 39.8256 23.5988 39.785C26.5482 39.2481 29.2726 38.0879 31.6964 36.3365C32.0461 36.0837 32.1247 35.5954 31.8721 35.2457ZM23.5157 6.51587C23.5157 6.08509 23.8662 5.73462 24.297 5.73462C24.7278 5.73462 25.0782 6.08509 25.0782 6.51587V11.3596H23.5157V6.51587ZM14.922 6.51587C14.922 6.08509 15.2724 5.73462 15.7032 5.73462C16.134 5.73462 16.4845 6.08509 16.4845 6.51587V11.3596H14.922V6.51587ZM12.3438 14.3284C12.3438 13.553 12.9747 12.9221 13.7501 12.9221H26.2501C27.0255 12.9221 27.6564 13.553 27.6564 14.3284C27.6564 15.1038 27.0255 15.7346 26.2501 15.7346H13.7501C12.9747 15.7346 12.3438 15.1038 12.3438 14.3284ZM14.5313 20.8909V17.2971H25.4689V20.8909C25.4689 23.9064 23.0156 26.3597 20.0001 26.3597C16.9846 26.3597 14.5313 23.9064 14.5313 20.8909ZM20.0297 28.8597C20.0231 28.8595 20.0167 28.8587 20.0101 28.8587C20.0035 28.8587 19.9971 28.8595 19.9905 28.8597H19.1409C19.0976 28.8597 19.0626 28.8246 19.0626 28.7815V27.8595C19.3694 27.9006 19.6823 27.9222 20.0001 27.9222C20.3179 27.9222 20.6308 27.9006 20.9376 27.8595V28.7815C20.9376 28.8246 20.9026 28.8597 20.8595 28.8597H20.0297Z" fill="#242424"/>
<path d="M34.1226 33.1283C33.813 32.8393 33.3306 32.8504 33.0345 33.1497C33.0285 33.1558 33.0225 33.1621 33.0168 33.1681C32.7223 33.4835 32.7394 33.9778 33.0548 34.2723C33.2054 34.4128 33.3968 34.4824 33.5877 34.4824C33.7895 34.4824 33.9908 34.4046 34.1429 34.2509C34.149 34.2448 34.155 34.2385 34.1607 34.2325C34.4551 33.9171 34.438 33.4228 34.1226 33.1283Z" fill="#242424"/>
<path d="M39.9479 18.6494C39.5999 13.8667 37.5384 9.36293 34.1435 5.96784C30.8066 2.63073 26.3491 0.588068 21.5921 0.21627C16.8932 -0.151152 12.2165 1.12401 8.42213 3.80651C8.06978 4.05558 7.98611 4.54315 8.23517 4.89542C8.48416 5.24769 8.97182 5.33152 9.32408 5.08237C16.5798 -0.0470891 26.7748 0.808459 33.0386 7.07269C39.5119 13.5462 40.2946 23.599 34.8997 30.9759C34.645 31.3241 34.7208 31.8129 35.0691 32.0677C35.2082 32.1694 35.3697 32.2184 35.5297 32.2184C35.7704 32.2184 36.0079 32.1075 36.161 31.8982C38.9476 28.0877 40.2926 23.3826 39.9479 18.6494Z" fill="#242424"/>
<path d="M6.86745 6.05817C6.56097 5.7545 6.06628 5.75653 5.76253 6.06309L5.74979 6.07606C5.44604 6.38247 5.44831 6.87716 5.75472 7.18091C5.90706 7.33184 6.10589 7.40724 6.30472 7.40724C6.50573 7.40724 6.70683 7.33005 6.85964 7.17598L6.87237 7.16302C7.17612 6.85661 7.17386 6.36192 6.86745 6.05817Z" fill="#242424"/>
<path d="M21.7623 20.6018C21.6223 20.3617 21.3653 20.214 21.0873 20.214H20.529L21.5573 18.9151C21.8251 18.5768 21.7679 18.0854 21.4296 17.8177C21.0914 17.5498 20.5999 17.6071 20.3321 17.9453L18.3015 20.5103C18.1156 20.7453 18.0803 21.0658 18.2108 21.3355C18.3413 21.6052 18.6145 21.7765 18.9141 21.7765H19.7469L18.7902 23.4657C18.5775 23.8412 18.7095 24.3179 19.0849 24.5305C19.2066 24.5994 19.3387 24.6321 19.4692 24.6321C19.7417 24.6321 20.0061 24.4895 20.1499 24.2357L21.7671 21.3803C21.9042 21.1384 21.9023 20.842 21.7623 20.6018Z" fill="#242424"/>
</g>
<defs>
<clipPath id="clip0">
<rect width="40" height="40" fill="white"/>
</clipPath>
</defs>
</svg>
