<svg width="40" height="40" viewBox="0 0 40 40" fill="none" xmlns="http://www.w3.org/2000/svg">
<g clip-path="url(#clip0)">
<path d="M14.5055 2.58069L10.9668 7.53559V9.03242H20.6442V2.58069H14.5055ZM19.354 7.74207H12.405L15.1702 3.87117H19.354V7.74207Z" fill="#242424"/>
<path d="M21.291 2.58069V9.03227H30.9685V7.53559L27.4298 2.58082H21.291V2.58069ZM22.5815 7.74179V3.8709H26.7654L29.5306 7.74179H22.5815Z" fill="#242424"/>
<path d="M20.6445 9.67761H18.709V10.968H20.6445V9.67761Z" fill="#242424"/>
<path d="M9.03317 20.0001C10.1002 20.0001 10.9687 19.1316 10.9687 18.0645C10.9687 16.9975 10.1002 16.129 9.03317 16.129C7.9661 16.129 7.09766 16.9975 7.09766 18.0645C7.09766 19.1318 7.9661 20.0001 9.03317 20.0001ZM9.03317 17.4192C9.38936 17.4192 9.67834 17.7082 9.67834 18.0644C9.67834 18.4206 9.38922 18.7096 9.03317 18.7096C8.67699 18.7096 8.388 18.4206 8.388 18.0644C8.388 17.7082 8.67699 17.4192 9.03317 17.4192Z" fill="#242424"/>
<path d="M38.0645 18.7104C39.6639 18.7104 40 17.6576 40 16.7749V10.9686C40 9.36925 38.6954 7.95128 37.5755 7.76215L34.9969 7.11697C34.3479 6.9525 33.9723 6.69887 33.4278 6.07768L30.1858 1.53898C29.3534 0.475168 28.4006 0.000976562 27.0967 0.000976562H14.8387C13.5341 0.000976562 12.5806 0.475169 11.7335 1.56161L8.54575 6.02918C7.96643 6.6963 7.52448 6.99951 6.99162 7.10654L3.09485 7.75618C1.24387 8.14163 0 9.69184 0 11.6137V16.1297C0 17.5285 1.18196 18.7104 2.58069 18.7104H4.56782C4.71239 19.7144 5.18522 20.613 5.87809 21.2911H0V26.4524H11.5154L17.8058 28.3879L11.4232 30.3517L11.4451 31.5917L17.518 33.2265L11.5271 34.8395H0V40.0007H39.9999V34.8395H28.4728L22.4819 33.2265L28.5548 31.5917L28.5767 30.3517L22.1941 28.3879L28.4844 26.4524H39.9999V21.2911H34.1218C34.8153 20.613 35.2876 19.7144 35.4322 18.7104H38.0645ZM5.80641 18.0654C5.80641 16.2866 7.25351 14.8395 9.03227 14.8395C10.811 14.8395 12.2581 16.2866 12.2581 18.0654C12.2581 19.8442 10.811 21.2913 9.03227 21.2913C7.25351 21.2913 5.80641 19.844 5.80641 18.0654ZM13.4967 18.7104H26.5031C26.6477 19.7144 27.1205 20.613 27.8134 21.2911H12.1865C12.88 20.6132 13.3522 19.7145 13.4967 18.7104ZM38.7095 36.1297V38.7104H1.29034V36.1297H38.7095ZM23.509 34.8395H16.4909L19.9999 33.895L23.509 34.8395ZM26.0593 30.9272L19.9999 32.5582L13.9406 30.9266L19.9999 29.0627L26.0593 30.9272ZM19.9999 27.7124L15.9039 26.4524H24.0961L19.9999 27.7124ZM38.7095 22.5815V25.1621H1.29034V22.5815H38.7095ZM30.9677 21.2913C29.189 21.2913 27.7419 19.8442 27.7419 18.0654C27.7419 16.2866 29.189 14.8395 30.9677 14.8395C32.7465 14.8395 34.1936 16.2866 34.1936 18.0654C34.1936 19.844 32.7465 21.2913 30.9677 21.2913ZM30.9676 13.5493C28.6972 13.5493 26.8179 15.2358 26.5031 17.4202H13.4967C13.1819 15.2358 11.3026 13.5493 9.03227 13.5493C6.76198 13.5493 4.88255 15.2358 4.56782 17.4202H2.58069C1.89352 17.4202 1.29034 16.817 1.29034 16.13V12.9041H2.58069V14.1945H3.87103V12.9041C3.87103 12.0719 3.41296 11.6138 2.58069 11.6138H1.29034C1.29034 10.0177 2.35809 9.2274 3.33167 9.02417L7.2233 8.37521C8.06587 8.20613 8.75169 7.75781 9.55687 6.82745L12.7665 2.33332C13.36 1.57394 13.922 1.29146 14.8387 1.29146H27.0967C28.0128 1.29146 28.5748 1.57407 29.1528 2.31151L32.4166 6.87595C33.0489 7.60363 33.6488 8.10695 34.6831 8.36816L37.3115 9.02363C37.8611 9.11847 38.7095 9.99518 38.7095 10.9688V16.7752C38.7095 17.3293 38.6186 17.4204 38.0643 17.4204H35.432C35.1173 15.2358 33.238 13.5493 30.9676 13.5493Z" fill="#242424"/>
<path d="M30.9668 16.129C29.8997 16.129 29.0312 16.9975 29.0312 18.0645C29.0312 19.1316 29.8997 20.0001 30.9668 20.0001C32.0338 20.0001 32.9023 19.1316 32.9023 18.0645C32.9023 16.9975 32.034 16.129 30.9668 16.129ZM30.9668 18.7096C30.6106 18.7096 30.3216 18.4206 30.3216 18.0644C30.3216 17.7082 30.6106 17.4192 30.9668 17.4192C31.3229 17.4192 31.6119 17.7082 31.6119 18.0644C31.6119 18.4206 31.3229 18.7096 30.9668 18.7096Z" fill="#242424"/>
<path d="M6.45246 27.7418H5.16211V30.9677H6.45246V27.7418Z" fill="#242424"/>
<path d="M3.87042 29.0323H2.58008V33.5484H3.87042V29.0323Z" fill="#242424"/>
<path d="M36.7747 27.7418H35.4844V30.3225H36.7747V27.7418Z" fill="#242424"/>
<path d="M34.1927 27.7418H32.9023V33.5482H34.1927V27.7418Z" fill="#242424"/>
<path d="M39.2903 12H37V13.2903H39.2903V12Z" fill="#242424"/>
<path d="M3.87042 36.7742H2.58008V38.0645H3.87042V36.7742Z" fill="#242424"/>
<path d="M6.45246 36.7742H5.16211V38.0645H6.45246V36.7742Z" fill="#242424"/>
</g>
<defs>
<clipPath id="clip0">
<rect width="40" height="40" fill="white"/>
</clipPath>
</defs>
</svg>
