<?xml version="1.0" encoding="utf-8"?><svg xmlns="http://www.w3.org/2000/svg" xmlns:xlink="http://www.w3.org/1999/xlink">
<symbol viewBox="0 0 18 11" id="Frame" xmlns="http://www.w3.org/2000/svg"><path d="M2.893 9.659V.393a.393.393 0 1 0-.786 0v9.266L.833 8.385a.393.393 0 0 0-.555.555l1.944 1.945a.393.393 0 0 0 .556 0L4.722 8.94a.393.393 0 1 0-.555-.555L2.893 9.659z"/><rect x="7" width="11" height="1" rx=".5"/><rect x="7" y="5" width="9" height="1" rx=".5"/><rect x="7" y="10" width="7" height="1" rx=".5"/></symbol><symbol viewBox="0 0 24 24" id="column" xmlns="http://www.w3.org/2000/svg"><rect x=".889" width="10.505" height="10.505" rx="1"/><rect x="13.495" width="10.505" height="10.505" rx="1"/><rect x=".889" y="12.606" width="10.505" height="10.505" rx="1"/><rect x="13.495" y="12.606" width="10.505" height="10.505" rx="1"/></symbol><symbol viewBox="0 0 9 9" id="cross" xmlns="http://www.w3.org/2000/svg"><path d="M5.296 4.5L8.836.963a.563.563 0 1 0-.797-.796L4.5 3.705.96.165a.563.563 0 1 0-.795.797L3.705 4.5.164 8.04a.563.563 0 1 0 .796.796l3.54-3.54 3.538 3.54a.561.561 0 0 0 .796 0 .563.563 0 0 0 0-.796L5.295 4.5z"/></symbol><symbol viewBox="0 0 31 33" id="lk" xmlns="http://www.w3.org/2000/svg"><circle cx="15" cy="15" r="15"/><g clip-path="url(#dclip0)"><mask id="da" maskUnits="userSpaceOnUse" x="0" y="0" width="30" height="30"><circle cx="15" cy="15" r="15"/></mask><g mask="url(#da)"><path d="M25.577 25.206l-5.711-1.237a.962.962 0 0 1-.24-.089L15 26.365l-4.445-2.605a.945.945 0 0 1-.42.21l-5.712 1.237C3.59 25.387 3 26.073 3 26.86v3.329c0 .47.413.85.923.85h22.154c.51 0 .923-.38.923-.85V26.86c0-.789-.59-1.474-1.423-1.655z"/></g><path d="M19 23.552V20.64h-8v2.912l4 3.328 4-3.328z"/><path d="M11 20.64v2.76c5.039 1.526 8-2.294 8-2.294v-.466h-8z"/><path d="M9 9.2l.402 9.257a2.938 2.938 0 0 0 1.105 2.186l1.908 1.497a2.69 2.69 0 0 0 1.662.58h1.846c.6 0 1.182-.203 1.662-.58l1.908-1.497a2.938 2.938 0 0 0 1.105-2.186L21 9.2H9z"/><path d="M13.668 11.131c1.867 0 4.668-.482 5.332-1.931H9l.407 9.257a2.927 2.927 0 0 0 1.117 2.186l1.93 1.497a2.74 2.74 0 0 0 1.68.58h.934c-.933 0-2.8-1.931-2.8-4.346V12.58c0-.483.466-1.449 1.4-1.449zM10.98 22.385l4.167 3.9s-1.167.613-2.607 1.848a.574.574 0 0 1-.906-.213l-1.958-4.48.62-.965a.445.445 0 0 1 .684-.09zm8.334 0l-4.167 3.9s1.167.613 2.607 1.848a.574.574 0 0 0 .906-.213l1.958-4.48-.62-.965a.445.445 0 0 0-.684-.09z"/><path d="M18 6.367l.38 3.063c1.73.396 1.98 3.5 2.016 4.387.006.161.051.317.127.452l.661 1.171s-.226-1.936.809-3.236c0 0 .355-7.686-3.993-5.837z"/><path d="M21.97 15.404l-.545 1.76c-.065.21-.297.356-.563.356-.292 0-.54-.176-.575-.41l-.28-1.802c-.074-.482.391-.908.993-.908.65 0 1.127.494.97 1.004zM9.791 5.233l.654.481c-2.957 2.353-2.404 6.39-2.404 6.39.884.953.884 3.336.884 3.336l.885-.953s-.342-2.754 1.326-3.813c1.548-.983 2.902-.477 4.284-.477 3.704 0 4.74-1.504 4.56-3.336-.092-.948-1.437-2.922-4.864-2.86-1.383.026-3.98.477-5.325 1.232z"/><path d="M9.53 9.993s-.468-1.92.911-3.913c-2.952 2.265-2.4 6.15-2.4 6.15.883.917.883 3.21.883 3.21l.883-.917s-.341-2.65 1.324-3.67c1.545-.946 2.897-.458 4.277-.458.601 0 1.125-.042 1.592-.114-2.847.1-4.526-2.142-7.47-.288z"/><path d="M8.03 15.404l.545 1.76c.065.21.297.356.563.356.292 0 .54-.176.576-.41l.278-1.802c.075-.482-.39-.908-.992-.908-.65 0-1.127.494-.97 1.004z"/></g><defs><clipPath id="dclip0"><path transform="translate(2 4)" d="M0 0h25v26H0z"/></clipPath></defs></symbol><symbol viewBox="0 0 30 30" id="price" xmlns="http://www.w3.org/2000/svg"><circle cx="15" cy="15" r="15"/><g clip-path="url(#eclip0)"><path d="M21.833 16.333h-1.837a1.16 1.16 0 0 0-1.117.832l-.573 1.908a.828.828 0 0 1-.798.594h-5.016a.828.828 0 0 1-.798-.594l-.573-1.908a1.159 1.159 0 0 0-1.117-.832H8.167C7.523 16.333 7 16.857 7 17.5v3.667C7 22.177 7.822 23 8.833 23h12.334A1.835 1.835 0 0 0 23 21.167V17.5c0-.643-.523-1.167-1.167-1.167zM12.167 12.833l2.833 3 2.833-3h-5.666z"/><path d="M15 16.333a.5.5 0 0 1-.363-.156l-2.834-3a.498.498 0 1 1 .363-.843h5.667a.498.498 0 0 1 .363.843l-2.833 3a.498.498 0 0 1-.363.156zm-1.673-3L15 15.105l1.673-1.772h-3.346z"/><path d="M15 15.167a.666.666 0 0 1-.667-.667V7.667a.666.666 0 1 1 1.334 0V14.5a.667.667 0 0 1-.667.667z"/></g><defs><clipPath id="eclip0"><path transform="translate(7 7)" d="M0 0h16v16H0z"/></clipPath></defs></symbol><symbol viewBox="0 0 24 24" id="row" xmlns="http://www.w3.org/2000/svg"><rect width="23.111" height="2.101" rx="1.051"/><rect y="10.505" width="23.111" height="2.101" rx="1.051"/><rect y="21.01" width="23.111" height="2.101" rx="1.051"/></symbol>
</svg>